<?xml version="1.0" encoding="UTF-8"?>
<svg xmlns="http://www.w3.org/2000/svg" xmlns:xlink="http://www.w3.org/1999/xlink" width="500px" height="500px" viewBox="0 0 500 299" version="1.1">
<g id="surface1">
<path style=" stroke:none;fill-rule:nonzero;fill:rgb(12.941176%,12.941176%,12.941176%);fill-opacity:1;" d="M 250.519531 293.933594 L 264.121094 293.933594 C 273.808594 293.933594 282.929688 289.421875 288.785156 281.734375 L 375.085938 168.496094 L 461.386719 281.734375 C 467.242188 289.414062 476.363281 293.933594 486.050781 293.933594 L 499.65625 293.933594 L 389.554688 149.496094 L 494.71875 11.5 L 481.113281 11.5 C 471.429688 11.5 462.308594 16.007812 456.453125 23.703125 L 375.074219 130.488281 L 293.683594 23.6875 C 287.828125 16.007812 278.707031 11.5 269.019531 11.5 L 255.417969 11.5 L 360.582031 149.496094 Z M 250.519531 293.933594 "/>
<path style=" stroke:none;fill-rule:nonzero;fill:rgb(12.941176%,12.941176%,12.941176%);fill-opacity:1;" d="M 254.011719 160.996094 L 254.011719 126.496094 C 254.011719 49.734375 185.464844 -11.050781 106.09375 1.703125 C 44.308594 11.628906 0.351562 67.355469 0.351562 129.761719 L 0.351562 162.628906 C 0.351562 237.984375 55.433594 298.164062 125.660156 298.992188 C 184.371094 299.683594 233.910156 260.539062 249.109375 207.007812 L 237.257812 207.007812 C 230.109375 207.007812 223.628906 211.089844 220.527344 217.507812 C 200.480469 258.847656 153.78125 284.917969 102.601562 273.1875 C 55.421875 262.367188 23.414062 218.277344 23.414062 170 L 23.414062 160.996094 Z M 23.414062 134.660156 C 23.414062 80.519531 55.742188 36.257812 103.246094 25.667969 C 170.972656 10.578125 230.953125 61.546875 230.953125 126.496094 L 230.953125 137.996094 L 23.414062 137.996094 Z M 23.414062 134.660156 "/>
</g>
</svg>
