<?xml version="1.0" encoding="UTF-8"?>
<svg xmlns="http://www.w3.org/2000/svg" xmlns:xlink="http://www.w3.org/1999/xlink" width="500px" height="500px" viewBox="0 0 500 557" version="1.1">
<g id="surface1">
<path style=" stroke:none;fill-rule:nonzero;fill:rgb(0.784314%,46.666667%,74.117647%);fill-opacity:1;" d="M 499.558594 0.00390625 L 0.441406 0.00390625 L 44.480469 498.363281 L 250 556.996094 L 455.519531 498.363281 Z M 499.558594 0.00390625 "/>
<path style=" stroke:none;fill-rule:nonzero;fill:rgb(1.176471%,60.784314%,89.803922%);fill-opacity:1;" d="M 250 43.976562 L 250 511.558594 L 414.414062 464.648438 L 451.117188 43.976562 Z M 250 43.976562 "/>
<path style=" stroke:none;fill-rule:nonzero;fill:rgb(100%,100%,100%);fill-opacity:1;" d="M 383.589844 117.269531 L 250 117.269531 L 250 175.894531 L 321.929688 175.894531 L 317.527344 234.527344 L 250 234.527344 L 250 293.160156 L 314.59375 293.160156 L 310.191406 359.117188 L 250 379.640625 L 250 441.199219 L 365.972656 403.09375 L 376.25 234.527344 Z M 383.589844 117.269531 "/>
<path style=" stroke:none;fill-rule:nonzero;fill:rgb(93.333333%,93.333333%,93.333333%);fill-opacity:1;" d="M 250 117.269531 L 250 175.894531 L 119.347656 175.894531 L 114.945312 117.269531 Z M 182.472656 234.527344 L 185.40625 293.160156 L 250 293.160156 L 250 234.527344 Z M 188.34375 322.472656 L 129.625 322.472656 L 134.027344 403.09375 L 250 441.199219 L 250 379.640625 L 189.808594 359.117188 Z M 188.34375 322.472656 "/>
</g>
</svg>
