<svg version="1.2" xmlns="http://www.w3.org/2000/svg" viewBox="0 0 506 466" width="500" height="500">
	<title>React_Logo_SVG (1)-svg</title>
	<style>
		.s0 { fill: #149eca } 
		.s1 { fill: none;stroke: #149eca;stroke-width: 22.7 } 
	</style>
	<g id="surface1">
		<path id="Layer" class="s0" d="m298.4 232.9c0 25.1-20.3 45.4-45.4 45.4-25.1 0-45.4-20.3-45.4-45.4 0-25.1 20.3-45.4 45.4-45.4 25.1 0 45.4 20.3 45.4 45.4z"/>
		<path id="Layer" class="s1" d="m479.9 232.9c0-56.4-101.6-102.1-226.9-102.1-125.3 0-226.9 45.7-226.9 102.1 0 56.4 101.6 102.1 226.9 102.1 125.3 0 226.9-45.7 226.9-102.1z"/>
		<path id="Layer" class="s1" d="m366.5 429.4c48.8-28.2 37.6-139-25.1-247.6-62.6-108.5-153-173.6-201.9-145.4-48.8 28.2-37.6 139 25.1 247.5 62.6 108.6 153 173.7 201.9 145.5z"/>
		<path id="Layer" class="s1" d="m139.5 429.4c48.9 28.2 139.3-36.9 201.9-145.5 62.7-108.5 73.9-219.3 25.1-247.5-48.9-28.2-139.3 36.9-201.9 145.4-62.7 108.6-73.9 219.4-25.1 247.6z"/>
	</g>
</svg>