<?xml version="1.0" encoding="UTF-8"?>
<svg xmlns="http://www.w3.org/2000/svg" xmlns:xlink="http://www.w3.org/1999/xlink" width="500px" height="500px" viewBox="0 0 500 305" version="1.1">
<defs>
<clipPath id="clip1">
  <path d="M 131 69.632812 L 238 69.632812 L 238 191 L 131 191 Z M 131 69.632812 "/>
</clipPath>
<clipPath id="clip2">
  <path d="M 181.789062 70.53125 L 134.234375 97.90625 C 132.460938 98.933594 131.367188 100.820312 131.367188 102.859375 L 131.367188 157.640625 C 131.367188 159.6875 132.460938 161.582031 134.234375 162.601562 L 181.800781 189.988281 C 183.570312 191.011719 185.761719 191.011719 187.542969 189.988281 L 235.09375 162.601562 C 236.863281 161.582031 237.957031 159.6875 237.957031 157.640625 L 237.957031 102.859375 C 237.957031 100.820312 236.863281 98.933594 235.082031 97.90625 L 187.535156 70.53125 C 186.640625 70.027344 185.652344 69.769531 184.65625 69.769531 C 183.664062 69.769531 182.667969 70.027344 181.777344 70.53125 "/>
</clipPath>
<linearGradient id="linear0" gradientUnits="userSpaceOnUse" x1="0" y1="0" x2="1" y2="0" gradientTransform="matrix(-68.705887,139.75498,-133.991493,-65.493475,218.976557,60.403845)">
<stop offset="0.3" style="stop-color:rgb(24.313725%,52.54902%,23.921569%);stop-opacity:1;"/>
<stop offset="0.5" style="stop-color:rgb(33.333333%,57.647059%,30.980392%);stop-opacity:1;"/>
<stop offset="0.8" style="stop-color:rgb(35.294118%,67.843137%,27.058824%);stop-opacity:1;"/>
</linearGradient>
<clipPath id="clip3">
  <path d="M 132.367188 69.632812 L 237 69.632812 L 237 191 L 132.367188 191 Z M 132.367188 69.632812 "/>
</clipPath>
<clipPath id="clip4">
  <path d="M 132.539062 161.117188 C 133 161.71875 133.5625 162.214844 134.234375 162.601562 L 175.027344 186.09375 L 181.824219 189.988281 C 182.835938 190.574219 184.003906 190.820312 185.144531 190.742188 C 185.519531 190.707031 185.890625 190.632812 186.269531 190.527344 L 236.421875 98.953125 C 236.042969 98.539062 235.59375 98.191406 235.09375 97.894531 L 203.949219 79.964844 L 187.492188 70.519531 C 187.015625 70.261719 186.519531 70.058594 186 69.925781 Z M 132.539062 161.117188 "/>
</clipPath>
<linearGradient id="linear1" gradientUnits="userSpaceOnUse" x1="0" y1="0" x2="1" y2="0" gradientTransform="matrix(125.143913,-92.200514,94.634553,127.708224,122.480603,177.207747)">
<stop offset="0.57" style="stop-color:rgb(24.313725%,52.54902%,23.921569%);stop-opacity:1;"/>
<stop offset="0.72" style="stop-color:rgb(38.039216%,59.607843%,34.117647%);stop-opacity:1;"/>
<stop offset="1" style="stop-color:rgb(46.27451%,67.45098%,39.215686%);stop-opacity:1;"/>
</linearGradient>
<clipPath id="clip5">
  <path d="M 134.324219 69.632812 L 238 69.632812 L 238 190.664062 L 134.324219 190.664062 Z M 134.324219 69.632812 "/>
</clipPath>
<clipPath id="clip6">
  <path d="M 184.089844 69.804688 C 183.289062 69.875 182.523438 70.121094 181.800781 70.53125 L 134.378906 97.828125 L 185.515625 190.699219 C 186.230469 190.589844 186.910156 190.355469 187.554688 189.988281 L 235.113281 162.601562 C 236.582031 161.75 237.585938 160.320312 237.890625 158.6875 L 185.761719 69.890625 C 185.378906 69.816406 184.984375 69.78125 184.589844 69.78125 C 184.4375 69.78125 184.28125 69.789062 184.125 69.804688 "/>
</clipPath>
<linearGradient id="linear2" gradientUnits="userSpaceOnUse" x1="0" y1="0" x2="1" y2="0" gradientTransform="matrix(103.476488,0,0,120.899776,134.407564,130.239691)">
<stop offset="0.16" style="stop-color:rgb(41.960784%,74.901961%,27.843137%);stop-opacity:1;"/>
<stop offset="0.38" style="stop-color:rgb(47.45098%,70.588235%,38.039216%);stop-opacity:1;"/>
<stop offset="0.47" style="stop-color:rgb(45.882353%,67.45098%,39.215686%);stop-opacity:1;"/>
<stop offset="0.7" style="stop-color:rgb(39.607843%,61.960784%,35.294118%);stop-opacity:1;"/>
<stop offset="0.9" style="stop-color:rgb(24.313725%,52.54902%,23.921569%);stop-opacity:1;"/>
</linearGradient>
</defs>
<g id="surface1">
<path style=" stroke:none;fill-rule:nonzero;fill:rgb(40.784314%,62.352941%,38.823529%);fill-opacity:1;" d="M 247.125 304.996094 C 245.542969 304.996094 243.847656 304.546875 242.496094 303.757812 L 227.367188 294.867188 C 225.113281 293.628906 226.242188 293.175781 227.03125 292.953125 C 229.964844 291.828125 230.640625 291.601562 233.804688 289.804688 C 234.144531 289.6875 234.597656 289.6875 234.933594 289.914062 L 246.445312 296.78125 C 246.898438 297.003906 247.460938 297.003906 247.914062 296.78125 L 292.953125 270.78125 C 293.40625 270.554688 293.632812 270.105469 293.632812 269.542969 L 293.632812 217.65625 C 293.632812 217.203125 293.40625 216.753906 292.953125 216.414062 L 247.914062 190.527344 C 247.460938 190.300781 246.898438 190.300781 246.445312 190.527344 L 201.410156 216.414062 C 200.957031 216.753906 200.730469 217.203125 200.730469 217.65625 L 200.730469 269.542969 C 200.730469 270.105469 200.957031 270.554688 201.410156 270.78125 L 213.710938 277.871094 C 220.484375 281.246094 224.546875 277.308594 224.546875 273.371094 L 224.546875 222.15625 C 224.546875 221.367188 225.113281 220.808594 225.90625 220.808594 L 231.546875 220.808594 C 232.335938 220.808594 232.902344 221.367188 232.902344 222.15625 L 232.902344 273.371094 C 232.902344 282.261719 228.050781 287.4375 219.578125 287.4375 C 216.871094 287.4375 214.84375 287.4375 209.082031 284.625 L 197.34375 277.757812 C 194.40625 276.070312 192.601562 272.921875 192.601562 269.542969 L 192.601562 217.65625 C 192.601562 214.277344 194.40625 211.128906 197.34375 209.4375 L 242.496094 183.550781 C 245.316406 181.859375 249.042969 181.859375 251.980469 183.550781 L 297.019531 209.546875 C 299.953125 211.128906 301.761719 214.277344 301.761719 217.65625 L 301.761719 269.542969 C 301.761719 272.921875 299.953125 276.070312 297.019531 277.757812 L 251.980469 303.757812 C 250.511719 304.546875 248.816406 304.996094 247.125 304.996094 "/>
<path style=" stroke:none;fill-rule:nonzero;fill:rgb(40.784314%,62.352941%,38.823529%);fill-opacity:1;" d="M 261.121094 269.316406 C 241.367188 269.316406 237.191406 260.199219 237.191406 252.660156 C 237.191406 251.984375 237.867188 251.421875 238.546875 251.421875 L 244.414062 251.421875 C 244.980469 251.421875 245.542969 251.871094 245.65625 252.433594 C 246.558594 258.398438 249.15625 261.324219 261.121094 261.324219 C 270.605469 261.324219 274.667969 259.1875 274.667969 254.234375 C 274.667969 251.308594 273.425781 249.171875 258.75 247.707031 C 246.335938 246.46875 238.769531 243.769531 238.769531 233.972656 C 238.769531 224.855469 246.445312 219.453125 259.316406 219.453125 C 273.652344 219.453125 280.875 224.519531 281.777344 235.210938 C 281.777344 235.550781 281.667969 236 281.441406 236.226562 C 281.214844 236.453125 280.765625 236.675781 280.421875 236.675781 L 274.554688 236.675781 C 273.988281 236.675781 273.425781 236.226562 273.3125 235.660156 C 271.957031 229.359375 268.460938 227.445312 259.203125 227.445312 C 248.816406 227.445312 247.6875 231.046875 247.6875 233.75 C 247.6875 237.015625 249.042969 237.914062 263.039062 239.828125 C 276.925781 241.628906 283.472656 244.21875 283.472656 253.898438 C 283.472656 263.691406 275.347656 269.316406 261.011719 269.316406 M 326.027344 214.953125 C 326.027344 219.679688 322.191406 223.621094 317.335938 223.621094 C 312.597656 223.621094 308.644531 219.679688 308.644531 214.953125 C 308.644531 210.003906 312.707031 206.285156 317.335938 206.285156 C 322.074219 206.285156 326.027344 210.003906 326.027344 214.953125 Z M 310.113281 214.839844 C 310.113281 218.894531 313.382812 222.15625 317.335938 222.15625 C 321.398438 222.15625 324.671875 218.894531 324.671875 214.839844 C 324.671875 210.902344 321.398438 207.636719 317.335938 207.636719 C 313.382812 207.636719 310.113281 210.789062 310.113281 214.839844 M 314.175781 210.003906 L 317.449219 210.003906 C 318.578125 210.003906 320.835938 210.003906 320.835938 212.589844 C 320.835938 214.390625 319.707031 214.726562 319.027344 214.953125 C 320.382812 215.066406 320.496094 215.964844 320.609375 217.203125 C 320.722656 217.992188 320.949219 219.34375 321.171875 219.792969 L 319.144531 219.792969 C 319.027344 219.34375 318.691406 216.863281 318.691406 216.753906 C 318.578125 216.191406 318.351562 215.855469 317.675781 215.855469 L 315.980469 215.855469 L 315.980469 219.792969 L 314.175781 219.792969 Z M 315.980469 214.277344 L 317.449219 214.277344 C 318.691406 214.277344 318.917969 213.375 318.917969 212.925781 C 318.917969 211.578125 318.015625 211.578125 317.558594 211.578125 L 315.980469 211.578125 Z M 315.980469 214.277344 "/>
<path style=" stroke:none;fill-rule:evenodd;fill:rgb(20%,20%,20%);fill-opacity:1;" d="M 107.488281 101.949219 C 107.488281 99.921875 106.476562 98.007812 104.667969 96.996094 L 56.808594 69.53125 C 56.019531 69.082031 55.117188 68.859375 54.214844 68.859375 L 53.761719 68.859375 C 52.746094 68.859375 51.84375 69.082031 51.050781 69.53125 L 3.304688 96.996094 C 1.496094 98.007812 0.367188 99.921875 0.367188 102.058594 L 0.480469 175.898438 C 0.480469 176.90625 1.042969 177.921875 1.945312 178.371094 C 2.738281 178.9375 3.867188 178.9375 4.773438 178.371094 L 33.214844 162.164062 C 35.023438 161.039062 36.039062 159.238281 36.039062 157.101562 L 36.039062 122.65625 C 36.039062 120.632812 37.167969 118.71875 38.972656 117.59375 L 51.050781 110.726562 C 51.953125 110.203125 52.933594 109.941406 53.988281 109.941406 C 55 109.941406 55.902344 110.164062 56.808594 110.726562 L 68.886719 117.59375 C 70.695312 118.71875 71.820312 120.519531 71.820312 122.65625 L 71.820312 157.101562 C 71.820312 159.238281 72.949219 161.039062 74.753906 162.164062 L 103.089844 178.371094 C 103.992188 178.9375 105.117188 178.9375 106.023438 178.371094 C 106.925781 177.8125 107.488281 176.90625 107.488281 175.898438 Z M 337.542969 0.421875 C 336.636719 -0.140625 335.507812 -0.140625 334.605469 0.421875 C 333.703125 0.875 333.136719 1.886719 333.136719 2.898438 L 333.136719 76.0625 C 333.136719 76.734375 332.800781 77.410156 332.234375 77.75 C 331.558594 78.199219 330.769531 78.199219 330.207031 77.75 L 318.242188 70.882812 C 316.433594 69.867188 314.175781 69.867188 312.367188 70.882812 L 264.621094 98.460938 C 262.816406 99.472656 261.6875 101.386719 261.6875 103.410156 L 261.6875 158.449219 C 261.6875 160.589844 262.816406 162.390625 264.621094 163.515625 L 312.367188 190.980469 C 314.175781 191.992188 316.433594 191.992188 318.242188 190.980469 L 365.988281 163.402344 C 367.792969 162.390625 368.921875 160.476562 368.921875 158.449219 L 368.921875 21.246094 C 368.921875 19.105469 367.792969 17.195312 365.988281 16.179688 Z M 333.027344 140.441406 C 333.027344 141.003906 332.800781 141.453125 332.351562 141.679688 L 315.871094 151.132812 C 315.417969 151.359375 314.964844 151.359375 314.511719 151.132812 L 298.03125 141.679688 C 297.582031 141.453125 297.355469 141.003906 297.355469 140.441406 L 297.355469 121.53125 C 297.355469 121.082031 297.582031 120.519531 298.03125 120.296875 L 314.402344 110.839844 C 314.851562 110.617188 315.417969 110.617188 315.871094 110.839844 L 332.351562 120.296875 C 332.800781 120.519531 333.027344 121.082031 333.027344 121.53125 Z M 496.703125 121.082031 C 498.507812 120.070312 499.636719 118.15625 499.636719 116.128906 L 499.636719 102.734375 C 499.636719 100.710938 498.507812 98.796875 496.703125 97.78125 L 449.183594 70.207031 C 447.488281 69.195312 445.226562 69.195312 443.421875 70.207031 L 395.675781 97.78125 C 393.867188 98.796875 392.738281 100.710938 392.738281 102.734375 L 392.738281 157.773438 C 392.738281 159.914062 393.867188 161.828125 395.675781 162.839844 L 443.199219 189.851562 C 444.890625 190.867188 447.035156 190.867188 448.84375 189.851562 L 477.511719 173.867188 C 478.414062 173.417969 479.09375 172.410156 479.09375 171.394531 C 479.09375 170.378906 478.53125 169.371094 477.628906 168.921875 L 429.425781 141.34375 C 428.523438 140.890625 428.070312 139.878906 428.070312 138.863281 L 428.070312 121.644531 C 428.070312 120.632812 428.523438 119.617188 429.425781 119.167969 L 444.441406 110.5 C 445.34375 110.050781 446.472656 110.050781 447.261719 110.5 L 462.273438 119.167969 C 463.175781 119.617188 463.742188 120.632812 463.742188 121.644531 L 463.742188 135.152344 C 463.742188 136.273438 464.304688 137.179688 465.210938 137.738281 C 466.113281 138.1875 467.128906 138.1875 468.035156 137.738281 Z M 496.703125 121.082031 "/>
<path style=" stroke:none;fill-rule:evenodd;fill:rgb(40.784314%,62.352941%,38.823529%);fill-opacity:1;" d="M 445.679688 118.492188 C 446.019531 118.269531 446.472656 118.269531 446.8125 118.492188 L 455.953125 123.785156 C 456.40625 124.007812 456.515625 124.34375 456.515625 124.683594 L 456.515625 135.265625 C 456.515625 135.714844 456.40625 136.050781 455.953125 136.273438 L 446.8125 141.566406 C 446.472656 141.679688 446.019531 141.679688 445.679688 141.566406 L 436.535156 136.273438 C 436.199219 136.050781 435.976562 135.714844 435.976562 135.265625 L 435.976562 124.683594 C 435.976562 124.34375 436.199219 124.007812 436.535156 123.785156 Z M 445.679688 118.492188 "/>
<g clip-path="url(#clip1)" clip-rule="nonzero">
<g clip-path="url(#clip2)" clip-rule="nonzero">
<path style=" stroke:none;fill-rule:nonzero;fill:url(#linear0);" d="M 286.066406 93.28125 L 151.96875 27.777344 L 83.335938 167.566406 L 217.324219 233.074219 Z M 286.066406 93.28125 "/>
</g>
</g>
<g clip-path="url(#clip3)" clip-rule="nonzero">
<g clip-path="url(#clip4)" clip-rule="nonzero">
<path style=" stroke:none;fill-rule:nonzero;fill:url(#linear1);" d="M 74.644531 112.640625 L 169.234375 240.277344 L 294.308594 148.09375 L 199.714844 20.460938 Z M 74.644531 112.640625 "/>
</g>
</g>
<g clip-path="url(#clip5)" clip-rule="nonzero">
<g clip-path="url(#clip6)" clip-rule="nonzero">
<path style=" stroke:none;fill-rule:nonzero;fill:url(#linear2);" d="M 134.355469 69.757812 L 134.355469 190.640625 L 237.867188 190.640625 L 237.867188 69.757812 Z M 134.355469 69.757812 "/>
</g>
</g>
</g>
</svg>
