<?xml version="1.0" encoding="UTF-8"?>
<svg xmlns="http://www.w3.org/2000/svg" xmlns:xlink="http://www.w3.org/1999/xlink" width="500px" height="500px" viewBox="0 0 500 500" version="1.1">
<g id="surface1">
<path style=" stroke:none;fill-rule:nonzero;fill:rgb(21.960784%,27.843137%,74.901961%);fill-opacity:1;" d="M 102.125 174 C 119.6875 141.125 147.4375 115.4375 181.5625 100.5 C 193.644531 95.207031 206.019531 91.480469 218.6875 89.3125 C 248.5625 84.269531 277.5625 87.167969 305.6875 98 C 334.855469 109.25 359.0625 127.355469 378.3125 152.3125 C 387.769531 164.5625 395.4375 178.0625 401.3125 192.8125 C 402.8125 196.5625 404.25 200.417969 405.625 204.375 C 405.667969 204.582031 405.792969 204.6875 406 204.6875 C 412.25 205.6875 418.75 207.0625 424.8125 209.0625 C 444.144531 215.480469 460.394531 226.417969 473.5625 241.875 C 487.0625 257.707031 495.394531 276.105469 498.5625 297.0625 C 499.6875 304.25 500.25 312.3125 499.75 319.625 C 497.4375 354.5625 478.5 384.1875 448.25 401.625 C 440.792969 405.957031 432.519531 409.667969 423.4375 412.75 C 423.394531 412.75 423.355469 412.75 423.3125 412.75 C 423.269531 412.75 423.230469 412.730469 423.1875 412.6875 C 423.1875 412.6875 423.167969 412.667969 423.125 412.625 C 423.125 412.582031 423.125 412.5625 423.125 412.5625 L 423.125 379.375 C 423.125 379.332031 423.125 379.292969 423.125 379.25 C 423.167969 379.207031 423.1875 379.167969 423.1875 379.125 C 423.230469 379.082031 423.25 379.042969 423.25 379 C 423.292969 379 423.332031 378.980469 423.375 378.9375 C 425.082031 378.144531 426.792969 377.3125 428.5 376.4375 C 439.375 371.0625 449.6875 362.625 456.5625 352.4375 C 466.105469 338.355469 469.9375 322.644531 468.0625 305.3125 C 464.125 269.0625 436.9375 240.75 400.625 236.125 C 394.625 235.375 387.8125 235.5625 381.5 235.4375 C 381.25 235.4375 381.105469 235.332031 381.0625 235.125 C 378.9375 225.542969 376.917969 217.894531 375 212.1875 C 365 182.6875 347.269531 159.1875 321.8125 141.6875 C 313.3125 135.8125 303.625 130.832031 292.75 126.75 C 288.582031 125.207031 284.542969 123.957031 280.625 123 C 248.957031 115.042969 218.5625 117.9375 189.4375 131.6875 C 164.5625 143.4375 144.0625 163.25 130.625 187.0625 C 127.6875 192.1875 125.375 198.0625 122.625 203.5 C 122.625 203.542969 122.605469 203.582031 122.5625 203.625 C 122.519531 203.667969 122.5 203.6875 122.5 203.6875 C 122.457031 203.730469 122.417969 203.75 122.375 203.75 C 122.332031 203.792969 122.292969 203.8125 122.25 203.8125 C 112.1875 204.75 102.3125 206 92.9375 209.4375 C 81.355469 213.730469 71.1875 219.792969 62.4375 227.625 C 47.3125 241.1875 36.6875 259.4375 33 279.5625 C 29.042969 301.230469 31.917969 321.582031 41.625 340.625 C 49.332031 355.75 60.480469 367.9375 75.0625 377.1875 C 75.269531 377.3125 75.375 377.5 75.375 377.75 L 75.375 412.625 C 75.375 412.917969 75.25 413 75 412.875 C 55 404 38.707031 391.269531 26.125 374.6875 C 6.125 348.355469 -2.355469 318.230469 0.6875 284.3125 C 1.0625 280.3125 1.6875 276.207031 2.5625 272 C 8.9375 241 26.875 213.5625 52.4375 195.25 C 66.9375 184.957031 83.3125 178.019531 101.5625 174.4375 C 101.8125 174.355469 102 174.207031 102.125 174 Z M 102.125 174 "/>
<path style=" stroke:none;fill-rule:nonzero;fill:rgb(21.960784%,27.843137%,74.901961%);fill-opacity:1;" d="M 161 286.375 C 160.707031 286.582031 160.5625 286.875 160.5625 287.25 C 160.5625 320.832031 160.5625 353.917969 160.5625 386.5 C 160.5625 391.0625 161.375 394.75 163.5625 399.0625 C 164.394531 400.6875 165.917969 402.6875 168.125 405.0625 C 169.917969 406.980469 171.730469 408.894531 173.5625 410.8125 C 173.730469 410.980469 173.832031 411.1875 173.875 411.4375 C 173.917969 411.6875 173.894531 411.9375 173.8125 412.1875 C 173.730469 412.394531 173.582031 412.582031 173.375 412.75 C 173.125 412.875 172.875 412.9375 172.625 412.9375 C 155.667969 412.980469 139.082031 412.980469 122.875 412.9375 C 112.4375 412.9375 103.5625 405.3125 101.0625 395.5 C 100.519531 393.332031 100.25 390.542969 100.25 387.125 C 100.207031 353.917969 100.207031 320.707031 100.25 287.5 C 100.25 287.292969 100.230469 287.105469 100.1875 286.9375 C 100.105469 286.769531 100 286.625 99.875 286.5 C 99.75 286.375 99.605469 286.269531 99.4375 286.1875 C 99.269531 286.144531 99.082031 286.125 98.875 286.125 L 88.25 286.125 C 88 286.082031 87.769531 286 87.5625 285.875 C 87.355469 285.75 87.1875 285.5625 87.0625 285.3125 C 86.980469 285.0625 86.957031 284.8125 87 284.5625 C 87.042969 284.3125 87.144531 284.082031 87.3125 283.875 L 129.625 239.4375 C 129.75 239.355469 129.875 239.269531 130 239.1875 C 130.125 239.144531 130.269531 239.125 130.4375 239.125 C 130.5625 239.125 130.707031 239.144531 130.875 239.1875 C 131 239.269531 131.105469 239.355469 131.1875 239.4375 L 173.5625 283.9375 C 173.5625 283.980469 173.582031 284.019531 173.625 284.0625 C 173.667969 284.105469 173.707031 284.144531 173.75 284.1875 C 173.75 284.230469 173.769531 284.269531 173.8125 284.3125 C 173.8125 284.355469 173.8125 284.417969 173.8125 284.5 C 174.0625 285.4375 173.4375 286.125 172.5 286.125 C 168.957031 286.082031 165.4375 286.0625 161.9375 286.0625 C 161.855469 286.105469 161.769531 286.125 161.6875 286.125 C 161.605469 286.125 161.519531 286.144531 161.4375 286.1875 C 161.394531 286.1875 161.332031 286.207031 161.25 286.25 C 161.167969 286.292969 161.082031 286.332031 161 286.375 Z M 161 286.375 "/>
<path style=" stroke:none;fill-rule:nonzero;fill:rgb(21.960784%,27.843137%,74.901961%);fill-opacity:1;" d="M 208.4375 309.5 C 208.1875 309.207031 207.875 309.0625 207.5 309.0625 C 204.042969 309.0625 200.644531 309.0625 197.3125 309.0625 C 196.855469 309.0625 196.480469 308.917969 196.1875 308.625 C 195.25 307.875 195.6875 307.0625 196.3125 306.375 C 210.355469 291.292969 224.292969 276.269531 238.125 261.3125 C 238.75 260.644531 239.375 260.644531 240 261.3125 L 282.25 306.625 C 282.417969 306.832031 282.542969 307.0625 282.625 307.3125 C 282.667969 307.5625 282.625 307.8125 282.5 308.0625 C 282.417969 308.3125 282.25 308.519531 282 308.6875 C 281.792969 308.8125 281.542969 308.875 281.25 308.875 L 270.9375 308.9375 C 269.8125 308.9375 269.25 309.480469 269.25 310.5625 C 269.25 336.894531 269.25 362.125 269.25 386.25 C 269.25 392.957031 271.394531 398.75 275.6875 403.625 C 277.769531 406 279.9375 408.3125 282.1875 410.5625 C 282.394531 410.769531 282.519531 411.019531 282.5625 411.3125 C 282.644531 411.5625 282.625 411.832031 282.5 412.125 C 282.417969 412.375 282.25 412.582031 282 412.75 C 281.75 412.875 281.5 412.9375 281.25 412.9375 C 264.5 412.980469 247.792969 412.980469 231.125 412.9375 C 221 412.9375 212.375 405.125 209.6875 395.625 C 209.019531 393.207031 208.6875 389.25 208.6875 383.75 C 208.769531 359.375 208.769531 334.875 208.6875 310.25 C 208.6875 310.167969 208.6875 310.082031 208.6875 310 C 208.6875 309.957031 208.667969 309.894531 208.625 309.8125 C 208.625 309.769531 208.605469 309.730469 208.5625 309.6875 C 208.519531 309.605469 208.480469 309.542969 208.4375 309.5 Z M 208.4375 309.5 "/>
<path style=" stroke:none;fill-rule:nonzero;fill:rgb(21.960784%,27.843137%,74.901961%);fill-opacity:1;" d="M 317.25 333 C 317.125 332.832031 316.980469 332.707031 316.8125 332.625 C 316.644531 332.542969 316.457031 332.5 316.25 332.5 C 312.667969 332.5 309.167969 332.5 305.75 332.5 C 305.457031 332.5 305.207031 332.417969 305 332.25 C 304.792969 332.125 304.625 331.9375 304.5 331.6875 C 304.375 331.4375 304.332031 331.167969 304.375 330.875 C 304.417969 330.625 304.519531 330.394531 304.6875 330.1875 L 347.0625 282.8125 C 347.144531 282.6875 347.25 282.605469 347.375 282.5625 C 347.5 282.519531 347.625 282.5 347.75 282.5 C 347.917969 282.5 348.0625 282.519531 348.1875 282.5625 C 348.3125 282.605469 348.417969 282.6875 348.5 282.8125 L 390.75 330.0625 C 390.917969 330.3125 391.019531 330.5625 391.0625 330.8125 C 391.105469 331.105469 391.082031 331.375 391 331.625 C 390.875 331.917969 390.6875 332.125 390.4375 332.25 C 390.1875 332.417969 389.917969 332.5 389.625 332.5 L 379.1875 332.5 C 379.019531 332.5 378.855469 332.542969 378.6875 332.625 C 378.519531 332.667969 378.375 332.75 378.25 332.875 C 378.125 333.042969 378.019531 333.207031 377.9375 333.375 C 377.894531 333.542969 377.855469 333.707031 377.8125 333.875 C 377.8125 352.125 377.832031 369.3125 377.875 385.4375 C 377.875 390.855469 379.230469 395.730469 381.9375 400.0625 C 384.3125 403.75 387.875 407.1875 390.875 410.625 C 391.082031 410.875 391.207031 411.125 391.25 411.375 C 391.25 411.667969 391.207031 411.9375 391.125 412.1875 C 391 412.4375 390.8125 412.625 390.5625 412.75 C 390.355469 412.917969 390.105469 413 389.8125 413 C 374.980469 412.917969 360.25 412.9375 345.625 413.0625 C 340.792969 413.0625 337.25 412.769531 335 412.1875 C 324 409.25 317.625 398.5 317.625 387.25 C 317.667969 369.332031 317.667969 351.542969 317.625 333.875 C 317.625 333.792969 317.625 333.707031 317.625 333.625 C 317.625 333.542969 317.605469 333.457031 317.5625 333.375 C 317.519531 333.292969 317.480469 333.230469 317.4375 333.1875 C 317.394531 333.105469 317.332031 333.042969 317.25 333 Z M 317.25 333 "/>
</g>
</svg>
