<?xml version="1.0" encoding="UTF-8"?>
<svg xmlns="http://www.w3.org/2000/svg" xmlns:xlink="http://www.w3.org/1999/xlink" width="500px" height="500px" viewBox="0 0 500 510" version="1.1">
<defs>
<linearGradient id="linear0" gradientUnits="userSpaceOnUse" x1="13.315" y1="514.906" x2="38.005" y2="481.377" gradientTransform="matrix(11.840275,0,0,-11.840275,-32.801261,6050.812613)">
<stop offset="0" style="stop-color:rgb(25.490196%,81.960784%,100%);stop-opacity:1;"/>
<stop offset="1" style="stop-color:rgb(57.254902%,19.215686%,74.509804%);stop-opacity:1;"/>
</linearGradient>
<linearGradient id="linear1" gradientUnits="userSpaceOnUse" x1="25.502" y1="508.764" x2="37.131" y2="428.99" gradientTransform="matrix(11.840275,0,0,-11.840275,-32.801261,6050.812613)">
<stop offset="0" style="stop-color:rgb(99.607843%,81.960784%,0%);stop-opacity:1;"/>
<stop offset="1" style="stop-color:rgb(89.019608%,37.647059%,0.392157%);stop-opacity:1;"/>
</linearGradient>
</defs>
<g id="surface1">
<path style=" stroke:none;fill-rule:nonzero;fill:url(#linear0);" d="M 498.355469 83.03125 L 263.476562 503.027344 C 258.625 511.695312 246.167969 511.753906 241.242188 503.121094 L 1.714844 83.0625 C -3.648438 73.664062 4.390625 62.273438 15.046875 64.179688 L 250.179688 106.214844 C 251.6875 106.488281 253.210938 106.472656 254.71875 106.203125 L 484.925781 64.242188 C 495.550781 62.300781 503.621094 73.605469 498.355469 83.03125 Z M 498.355469 83.03125 "/>
<path style=" stroke:none;fill-rule:nonzero;fill:url(#linear1);" d="M 364.722656 0.550781 L 192.390625 34.320312 C 189.558594 34.878906 187.464844 37.28125 187.289062 40.15625 L 176.691406 219.195312 C 176.4375 223.410156 180.3125 226.6875 184.433594 225.726562 L 232.40625 214.660156 C 236.894531 213.625 240.957031 217.574219 240.035156 222.09375 L 225.777344 291.890625 C 224.820312 296.59375 229.226562 300.609375 233.816406 299.210938 L 263.453125 290.210938 C 268.050781 288.8125 272.464844 292.839844 271.492188 297.550781 L 248.839844 407.191406 C 247.425781 414.046875 256.550781 417.789062 260.355469 411.90625 L 262.898438 407.976562 L 403.320312 127.726562 C 405.679688 123.039062 401.617188 117.6875 396.464844 118.679688 L 347.082031 128.210938 C 342.441406 129.113281 338.496094 124.789062 339.800781 120.246094 L 372.027344 8.496094 C 373.332031 3.96875 369.378906 -0.359375 364.722656 0.550781 Z M 364.722656 0.550781 "/>
</g>
</svg>
