<?xml version="1.0" encoding="UTF-8"?>
<svg xmlns="http://www.w3.org/2000/svg" xmlns:xlink="http://www.w3.org/1999/xlink" width="500px" height="500px" viewBox="0 0 500 299" version="1.1">
<g id="surface1">
<path style=" stroke:none;fill-rule:nonzero;fill:rgb(0%,67.45098%,75.686275%);fill-opacity:1;" d="M 250 0 C 183.363281 0 141.710938 33.222656 125.054688 99.664062 C 150.042969 66.441406 179.195312 53.992188 212.515625 62.289062 C 231.53125 67.023438 245.117188 80.78125 260.160156 96.003906 C 284.652344 120.792969 313.003906 149.496094 374.945312 149.496094 C 441.585938 149.496094 483.234375 116.277344 499.894531 49.828125 C 474.902344 83.042969 445.753906 95.507812 412.429688 87.207031 C 393.429688 82.472656 379.839844 68.714844 364.796875 53.492188 C 340.292969 28.695312 311.933594 0 250 0 Z M 125.054688 149.496094 C 58.414062 149.496094 16.765625 182.714844 0.105469 249.164062 C 25.097656 215.945312 54.246094 203.484375 87.570312 211.789062 C 106.570312 216.535156 120.160156 230.285156 135.203125 245.496094 C 159.707031 270.296875 188.066406 298.996094 250 298.996094 C 316.636719 298.996094 358.289062 265.777344 374.945312 199.328125 C 349.957031 232.550781 320.804688 245.011719 287.484375 236.703125 C 268.46875 231.96875 254.882812 218.207031 239.839844 202.992188 C 215.347656 178.199219 186.996094 149.496094 125.054688 149.496094 Z M 125.054688 149.496094 "/>
</g>
</svg>
