<?xml version="1.0" encoding="UTF-8"?>
<svg xmlns="http://www.w3.org/2000/svg" xmlns:xlink="http://www.w3.org/1999/xlink" width="500px" height="500px" viewBox="0 0 500 500" version="1.1">
<defs>
<linearGradient id="linear0" gradientUnits="userSpaceOnUse" x1="24" y1="43.734" x2="24" y2="4.266" gradientTransform="matrix(12.668552,0,0,12.668552,-54.039288,-54.039288)">
<stop offset="0" style="stop-color:rgb(3.921569%,2.745098%,3.921569%);stop-opacity:1;"/>
<stop offset="0.465" style="stop-color:rgb(16.862745%,16.862745%,16.862745%);stop-opacity:1;"/>
<stop offset="1" style="stop-color:rgb(29.411765%,29.411765%,29.411765%);stop-opacity:1;"/>
</linearGradient>
<linearGradient id="linear1" gradientUnits="userSpaceOnUse" x1="30.512" y1="33.021" x2="30.512" y2="18.431" gradientTransform="matrix(12.668552,0,0,12.668552,-54.039288,-54.039288)">
<stop offset="0.377" style="stop-color:rgb(100%,100%,100%);stop-opacity:0;"/>
<stop offset="0.666" style="stop-color:rgb(100%,100%,100%);stop-opacity:0.301961;"/>
<stop offset="0.988" style="stop-color:rgb(100%,100%,100%);stop-opacity:1;"/>
</linearGradient>
<linearGradient id="linear2" gradientUnits="userSpaceOnUse" x1="22.102" y1="21.443" x2="36.661" y2="40.529" gradientTransform="matrix(12.668552,0,0,12.668552,-54.039288,-54.039288)">
<stop offset="0.296" style="stop-color:rgb(100%,100%,100%);stop-opacity:1;"/>
<stop offset="0.521" style="stop-color:rgb(100%,100%,100%);stop-opacity:0.501961;"/>
<stop offset="0.838" style="stop-color:rgb(100%,100%,100%);stop-opacity:0;"/>
</linearGradient>
</defs>
<g id="surface1">
<path style=" stroke:none;fill-rule:nonzero;fill:url(#linear0);" d="M 500.007812 250.007812 C 500.007812 388.078125 388.078125 500.007812 250.007812 500.007812 C 111.933594 500.007812 0.00390625 388.078125 0.00390625 250.007812 C 0.00390625 111.933594 111.933594 0.00390625 250.007812 0.00390625 C 388.078125 0.00390625 500.007812 111.933594 500.007812 250.007812 Z M 500.007812 250.007812 "/>
<path style=" stroke:none;fill-rule:nonzero;fill:rgb(100%,100%,100%);fill-opacity:1;" d="M 148.558594 148.996094 L 186.855469 148.996094 L 186.855469 351.644531 L 148.558594 351.644531 Z M 148.558594 148.996094 "/>
<path style=" stroke:none;fill-rule:nonzero;fill:url(#linear1);" d="M 313.792969 148.113281 L 351.203125 148.113281 L 351.203125 332.949219 L 313.792969 332.949219 Z M 313.792969 148.113281 "/>
<path style=" stroke:none;fill-rule:nonzero;fill:url(#linear2);" d="M 411.925781 428.554688 L 378.816406 441.175781 L 148.558594 148.996094 L 193.097656 148.996094 Z M 411.925781 428.554688 "/>
</g>
</svg>
