<?xml version="1.0" encoding="UTF-8"?>
<svg xmlns="http://www.w3.org/2000/svg" xmlns:xlink="http://www.w3.org/1999/xlink" width="500px" height="500px" viewBox="0 0 500 557" version="1.1">
<g id="surface1">
<path style=" stroke:none;fill-rule:nonzero;fill:rgb(90.196078%,31.764706%,0%);fill-opacity:1;" d="M 499.558594 0.00390625 L 0.441406 0.00390625 L 44.480469 498.363281 L 250 556.996094 L 455.519531 498.363281 Z M 499.558594 0.00390625 "/>
<path style=" stroke:none;fill-rule:nonzero;fill:rgb(100%,42.745098%,0%);fill-opacity:1;" d="M 250 43.976562 L 250 511.558594 L 414.414062 464.648438 L 451.117188 43.976562 Z M 250 43.976562 "/>
<path style=" stroke:none;fill-rule:nonzero;fill:rgb(100%,100%,100%);fill-opacity:1;" d="M 250 293.160156 L 250 234.527344 L 376.25 234.527344 L 365.972656 403.09375 L 250 441.199219 L 250 379.640625 L 310.191406 359.117188 L 314.59375 293.160156 Z M 380.652344 175.894531 L 385.054688 117.269531 L 250 117.269531 L 250 175.894531 Z M 380.652344 175.894531 "/>
<path style=" stroke:none;fill-rule:nonzero;fill:rgb(93.333333%,93.333333%,93.333333%);fill-opacity:1;" d="M 250 379.640625 L 250 441.199219 L 134.027344 403.09375 L 128.152344 322.472656 L 186.875 322.472656 L 189.808594 359.117188 Z M 178.070312 175.894531 L 250 175.894531 L 250 117.269531 L 116.410156 117.269531 L 126.683594 293.160156 L 250 293.160156 L 250 234.527344 L 182.472656 234.527344 Z M 178.070312 175.894531 "/>
</g>
</svg>
