<?xml version="1.0" encoding="UTF-8"?>
<svg xmlns="http://www.w3.org/2000/svg" xmlns:xlink="http://www.w3.org/1999/xlink" width="500px" height="500px" viewBox="0 0 500 375" version="1.1">
<g id="surface1">
<path style=" stroke:none;fill-rule:nonzero;fill:rgb(13.72549%,58.431373%,92.54902%);fill-opacity:1;" d="M 495.0625 154.671875 C 493.707031 153.609375 481.03125 144.183594 454.289062 144.183594 C 447.226562 144.214844 440.183594 144.808594 433.226562 145.964844 C 428.046875 111.039062 399.636719 94.628906 398.324219 93.863281 L 391.144531 89.785156 L 386.417969 96.488281 C 380.503906 105.507812 375.277344 114.816406 372.738281 125.261719 C 367.953125 145.203125 370.863281 163.925781 381.148438 179.933594 C 368.710938 186.753906 347.519531 187.355469 343.492188 187.503906 L 15.683594 187.503906 C 7.066406 187.511719 0.078125 194.378906 0.0234375 202.851562 C -0.363281 231.3125 3.707031 260.679688 13.648438 287.402344 C 25.011719 316.746094 41.925781 338.363281 63.921875 351.585938 C 88.566406 366.445312 128.609375 374.941406 174.007812 374.941406 C 194.511719 375.007812 214.980469 373.183594 235.136719 369.484375 C 263.164062 364.417969 290.132812 354.773438 314.925781 340.953125 C 335.355469 329.304688 353.742188 314.484375 369.378906 297.0625 C 395.515625 267.925781 411.082031 235.488281 422.664062 206.652344 C 424.21875 206.652344 425.773438 206.652344 427.277344 206.652344 C 455.894531 206.652344 473.484375 195.375 483.191406 185.929688 C 489.636719 179.902344 494.675781 172.5625 497.945312 164.425781 L 500 158.511719 Z M 495.0625 154.671875 "/>
<path style=" stroke:none;fill-rule:nonzero;fill:rgb(13.72549%,58.431373%,92.54902%);fill-opacity:1;" d="M 82.648438 177.089844 L 51.347656 177.089844 C 45.585938 177.089844 40.914062 172.421875 40.914062 166.675781 L 40.914062 135.4375 C 40.914062 129.6875 45.585938 125.023438 51.347656 125.023438 L 82.648438 125.023438 C 88.410156 125.023438 93.082031 129.6875 93.082031 135.4375 L 93.082031 166.675781 C 93.082031 172.421875 88.410156 177.089844 82.648438 177.089844 Z M 82.648438 177.089844 "/>
<path style=" stroke:none;fill-rule:nonzero;fill:rgb(13.72549%,58.431373%,92.54902%);fill-opacity:1;" d="M 145.25 177.089844 L 113.949219 177.089844 C 108.191406 177.089844 103.515625 172.421875 103.515625 166.675781 L 103.515625 135.4375 C 103.515625 129.6875 108.191406 125.023438 113.949219 125.023438 L 145.25 125.023438 C 151.011719 125.023438 155.683594 129.6875 155.683594 135.4375 L 155.683594 166.675781 C 155.683594 172.421875 151.011719 177.089844 145.25 177.089844 Z M 145.25 177.089844 "/>
<path style=" stroke:none;fill-rule:nonzero;fill:rgb(13.72549%,58.431373%,92.54902%);fill-opacity:1;" d="M 207.851562 177.089844 L 176.550781 177.089844 C 170.792969 177.089844 166.121094 172.421875 166.121094 166.675781 L 166.121094 135.4375 C 166.121094 129.6875 170.792969 125.023438 176.550781 125.023438 L 207.851562 125.023438 C 213.613281 125.023438 218.289062 129.6875 218.289062 135.4375 L 218.289062 166.675781 C 218.289062 172.421875 213.613281 177.089844 207.851562 177.089844 Z M 207.851562 177.089844 "/>
<path style=" stroke:none;fill-rule:nonzero;fill:rgb(13.72549%,58.431373%,92.54902%);fill-opacity:1;" d="M 270.457031 177.089844 L 239.152344 177.089844 C 233.394531 177.089844 228.722656 172.421875 228.722656 166.675781 L 228.722656 135.4375 C 228.722656 129.6875 233.394531 125.023438 239.152344 125.023438 L 270.457031 125.023438 C 276.21875 125.023438 280.890625 129.6875 280.890625 135.4375 L 280.890625 166.675781 C 280.890625 172.421875 276.21875 177.089844 270.457031 177.089844 Z M 270.457031 177.089844 "/>
<path style=" stroke:none;fill-rule:nonzero;fill:rgb(13.72549%,58.431373%,92.54902%);fill-opacity:1;" d="M 145.25 114.609375 L 113.949219 114.609375 C 108.191406 114.609375 103.515625 109.941406 103.515625 104.195312 L 103.515625 72.957031 C 103.515625 67.207031 108.191406 62.542969 113.949219 62.542969 L 145.25 62.542969 C 151.011719 62.542969 155.683594 67.207031 155.683594 72.957031 L 155.683594 104.195312 C 155.683594 109.941406 151.011719 114.609375 145.25 114.609375 Z M 145.25 114.609375 "/>
<path style=" stroke:none;fill-rule:nonzero;fill:rgb(13.72549%,58.431373%,92.54902%);fill-opacity:1;" d="M 207.851562 114.609375 L 176.550781 114.609375 C 170.792969 114.609375 166.121094 109.941406 166.121094 104.195312 L 166.121094 72.957031 C 166.121094 67.207031 170.792969 62.542969 176.550781 62.542969 L 207.851562 62.542969 C 213.613281 62.542969 218.289062 67.207031 218.289062 72.957031 L 218.289062 104.195312 C 218.289062 109.941406 213.613281 114.609375 207.851562 114.609375 Z M 207.851562 114.609375 "/>
<path style=" stroke:none;fill-rule:nonzero;fill:rgb(13.72549%,58.431373%,92.54902%);fill-opacity:1;" d="M 270.457031 114.609375 L 239.152344 114.609375 C 233.394531 114.609375 228.722656 109.941406 228.722656 104.195312 L 228.722656 72.957031 C 228.722656 67.207031 233.394531 62.542969 239.152344 62.542969 L 270.457031 62.542969 C 276.21875 62.542969 280.890625 67.207031 280.890625 72.957031 L 280.890625 104.195312 C 280.890625 109.941406 276.21875 114.609375 270.457031 114.609375 Z M 270.457031 114.609375 "/>
<path style=" stroke:none;fill-rule:nonzero;fill:rgb(13.72549%,58.431373%,92.54902%);fill-opacity:1;" d="M 270.457031 52.128906 L 239.152344 52.128906 C 233.394531 52.128906 228.722656 47.460938 228.722656 41.714844 L 228.722656 10.476562 C 228.722656 4.726562 233.394531 0.0625 239.152344 0.0625 L 270.457031 0.0625 C 276.21875 0.0625 280.890625 4.726562 280.890625 10.476562 L 280.890625 41.714844 C 280.890625 47.460938 276.21875 52.128906 270.457031 52.128906 Z M 270.457031 52.128906 "/>
<path style=" stroke:none;fill-rule:nonzero;fill:rgb(13.72549%,58.431373%,92.54902%);fill-opacity:1;" d="M 333.058594 177.089844 L 301.757812 177.089844 C 296 177.089844 291.324219 172.421875 291.324219 166.675781 L 291.324219 135.4375 C 291.324219 129.6875 296 125.023438 301.757812 125.023438 L 333.058594 125.023438 C 338.820312 125.023438 343.492188 129.6875 343.492188 135.4375 L 343.492188 166.675781 C 343.492188 172.421875 338.820312 177.089844 333.058594 177.089844 Z M 333.058594 177.089844 "/>
</g>
</svg>
