<?xml version="1.0" encoding="UTF-8"?>
<svg xmlns="http://www.w3.org/2000/svg" xmlns:xlink="http://www.w3.org/1999/xlink" width="500px" height="500px" viewBox="0 0 500 501" version="1.1">
<defs>
<linearGradient id="linear0" gradientUnits="userSpaceOnUse" x1="0" y1="0" x2="1" y2="0" gradientTransform="matrix(499.597122,0,0,487.113431,0.352518,243.909093)">
<stop offset="0" style="stop-color:rgb(29.803922%,29.803922%,29.803922%);stop-opacity:1;"/>
<stop offset="1" style="stop-color:rgb(20.392157%,20.392157%,20.392157%);stop-opacity:1;"/>
</linearGradient>
</defs>
<g id="surface1">
<path style=" stroke:none;fill-rule:nonzero;fill:url(#linear0);" d="M 250.121094 0.359375 C 112.230469 0.359375 0.359375 112.1875 0.359375 250.019531 C 0.359375 361.007812 72.78125 454.976562 173.023438 487.457031 L 327.339844 487.457031 C 427.457031 454.976562 500 361.007812 500 250.019531 C 500 112.1875 388.128906 0.359375 250.121094 0.359375 Z M 250.121094 0.359375 "/>
<path style=" stroke:none;fill-rule:nonzero;fill:rgb(100%,100%,100%);fill-opacity:1;" d="M 409.351562 241.75 C 409.351562 212.863281 399.519531 189.011719 382.855469 170.195312 C 384.652344 166.121094 386.570312 160.726562 387.53125 153.894531 C 389.6875 138.3125 387.171875 128.964844 385.011719 119.738281 C 382.855469 110.628906 380.335938 104.15625 380.335938 104.15625 C 380.335938 104.15625 368.824219 102.957031 358.992188 106.3125 C 349.28125 109.667969 340.886719 112.1875 328.777344 119.378906 C 323.140625 122.734375 317.386719 126.449219 312.949219 129.445312 C 293.644531 124.050781 272.421875 121.292969 250.121094 121.292969 C 227.699219 121.292969 206.234375 124.050781 186.8125 129.445312 C 182.375 126.449219 176.617188 122.734375 170.863281 119.378906 C 158.871094 112.1875 150.480469 109.546875 140.648438 106.3125 C 130.933594 102.957031 119.425781 104.15625 119.425781 104.15625 C 119.425781 104.15625 116.90625 110.628906 114.75 119.738281 C 112.589844 128.84375 110.070312 138.3125 112.230469 153.894531 C 113.1875 160.847656 115.109375 166.480469 116.90625 170.554688 C 100.597656 189.132812 91.007812 212.863281 91.007812 241.75 C 91.007812 316.421875 131.414062 350.582031 204.917969 359.570312 C 196.28125 368.558594 190.527344 380.183594 188.609375 393.128906 C 183.8125 395.285156 178.175781 397.203125 172.902344 398.042969 C 159.113281 400.082031 144.484375 398.042969 137.53125 393.847656 C 130.457031 389.773438 122.183594 380.304688 115.945312 371.195312 C 110.671875 363.523438 102.996094 354.65625 96.164062 351.539062 C 87.050781 347.34375 78.175781 345.785156 73.261719 346.503906 C 68.34375 347.34375 65.945312 350.941406 67.027344 353.578125 C 67.984375 356.214844 73.023438 360.046875 78.175781 362.925781 C 83.332031 365.800781 91.488281 373.59375 96.164062 381.144531 C 101.320312 389.535156 102.398438 394.449219 106.835938 404.035156 C 109.953125 410.75 120.503906 419.257812 128.175781 423.8125 C 134.652344 427.648438 147.601562 429.925781 161.75 430.523438 C 166.546875 430.765625 178.058594 429.324219 187.769531 428.007812 L 187.769531 474.75 C 187.769531 482.78125 180.457031 488.894531 172.902344 487.457031 C 197.121094 495.605469 223.140625 499.800781 250.121094 499.800781 C 277.21875 499.800781 303.117188 495.605469 327.457031 487.457031 C 319.902344 488.894531 312.589844 482.78125 312.589844 474.75 L 312.589844 402.359375 C 312.589844 385.699219 305.996094 370.714844 295.445312 359.570312 C 368.464844 350.820312 409.351562 317.5 409.351562 241.75 Z M 90.765625 358.96875 C 88.847656 358.011719 87.769531 356.214844 88.488281 354.894531 C 89.089844 353.578125 91.246094 353.335938 93.164062 354.414062 C 95.082031 355.375 96.042969 357.171875 95.445312 358.492188 C 94.84375 359.808594 92.6875 360.046875 90.765625 358.96875 Z M 105.875 368.4375 C 104.917969 369.515625 102.757812 369.15625 101.078125 367.71875 C 99.402344 366.160156 98.800781 364.003906 99.878906 362.925781 C 100.839844 361.847656 102.996094 362.207031 104.675781 363.644531 C 106.355469 365.203125 106.953125 367.359375 105.875 368.4375 Z M 115.347656 384.019531 C 114.027344 384.980469 111.871094 384.140625 110.550781 382.222656 C 109.113281 380.183594 108.992188 377.90625 110.3125 377.070312 C 111.628906 376.109375 113.789062 376.949219 115.109375 378.867188 C 116.546875 380.785156 116.546875 383.179688 115.347656 384.019531 Z M 128.898438 395.765625 C 127.9375 397.203125 125.539062 397.203125 123.382812 395.886719 C 121.222656 394.6875 120.144531 392.410156 121.101562 391.089844 C 121.941406 389.652344 124.339844 389.535156 126.5 390.851562 C 128.65625 392.171875 129.734375 394.449219 128.898438 395.765625 Z M 141.605469 407.273438 C 138.96875 406.914062 137.050781 405.355469 137.289062 403.558594 C 137.410156 401.878906 139.808594 400.679688 142.445312 401.039062 C 145.082031 401.398438 147.003906 403.078125 146.882812 404.753906 C 146.644531 406.433594 144.246094 407.632812 141.605469 407.273438 Z M 162.230469 410.269531 C 159.472656 410.148438 157.195312 408.472656 157.3125 406.671875 C 157.433594 404.875 159.832031 403.4375 162.710938 403.675781 C 165.46875 403.796875 167.746094 405.472656 167.625 407.273438 C 167.507812 409.070312 165.109375 410.386719 162.230469 410.269531 Z M 181.773438 408.351562 C 178.65625 408.351562 176.257812 406.792969 176.257812 404.875 C 176.257812 402.835938 178.65625 401.28125 181.773438 401.28125 C 184.773438 401.28125 187.171875 402.835938 187.171875 404.875 C 187.171875 406.792969 184.773438 408.351562 181.773438 408.351562 Z M 181.773438 408.351562 "/>
</g>
</svg>
