<?xml version="1.0" encoding="UTF-8"?>
<svg xmlns="http://www.w3.org/2000/svg" xmlns:xlink="http://www.w3.org/1999/xlink" width="500px" height="500px" viewBox="0 0 500 440" version="1.1">
<defs>
<clipPath id="clip1">
  <path d="M 230 0.253906 L 270.507812 0.253906 L 270.507812 108.78125 L 230 108.78125 Z M 230 0.253906 "/>
</clipPath>
<clipPath id="clip2">
  <path d="M 230 331.21875 L 270.507812 331.21875 L 270.507812 439.785156 L 230 439.785156 Z M 230 331.21875 "/>
</clipPath>
</defs>
<g id="surface1">
<path style=" stroke:none;fill-rule:nonzero;fill:rgb(1.960784%,74.117647%,72.941176%);fill-opacity:1;" d="M 135.15625 367.316406 L 130.46875 367.316406 L 107.03125 343.902344 L 107.03125 338.828125 L 142.96875 302.925781 L 167.96875 302.925781 L 171.09375 306.441406 L 171.09375 331.414062 Z M 135.15625 367.316406 "/>
<path style=" stroke:none;fill-rule:nonzero;fill:rgb(1.960784%,74.117647%,72.941176%);fill-opacity:1;" d="M 107.03125 101.171875 L 107.03125 96.097656 L 130.46875 72.683594 L 135.15625 72.683594 L 171.09375 108.585938 L 171.09375 133.558594 L 167.96875 137.074219 L 142.96875 137.074219 Z M 107.03125 101.171875 "/>
<path style=" stroke:none;fill-rule:nonzero;fill:rgb(0.392157%,28.235294%,27.843137%);fill-opacity:1;" d="M 314.453125 291.21875 L 280.078125 291.21875 L 276.953125 288.488281 L 276.953125 208.488281 C 276.953125 194.046875 271.484375 183.121094 254.296875 182.734375 C 245.3125 182.339844 235.15625 182.734375 224.609375 183.121094 L 223.046875 184.683594 L 223.046875 288.488281 L 219.921875 291.21875 L 185.546875 291.21875 L 182.8125 288.488281 L 182.8125 151.511719 L 185.546875 148.78125 L 262.890625 148.78125 C 292.96875 148.78125 317.1875 172.976562 317.1875 203.027344 L 317.1875 288.488281 Z M 314.453125 291.21875 "/>
<path style=" stroke:none;fill-rule:nonzero;fill:rgb(1.960784%,74.117647%,72.941176%);fill-opacity:1;" d="M 139.84375 240.097656 L 2.734375 240.097656 L 0 237.367188 L 0 203.027344 L 2.734375 199.902344 L 139.84375 199.902344 L 142.96875 203.027344 L 142.96875 237.367188 Z M 139.84375 240.097656 "/>
<path style=" stroke:none;fill-rule:nonzero;fill:rgb(1.960784%,74.117647%,72.941176%);fill-opacity:1;" d="M 497.265625 240.097656 L 360.15625 240.097656 L 357.03125 237.367188 L 357.03125 203.027344 L 360.15625 199.902344 L 497.265625 199.902344 L 500 203.027344 L 500 237.367188 Z M 497.265625 240.097656 "/>
<g clip-path="url(#clip1)" clip-rule="nonzero">
<path style=" stroke:none;fill-rule:nonzero;fill:rgb(1.960784%,74.117647%,72.941176%);fill-opacity:1;" d="M 230.078125 105.855469 L 230.078125 3.21875 L 233.203125 0.0976562 L 267.578125 0.0976562 L 270.3125 3.21875 L 270.3125 105.855469 L 267.578125 108.585938 L 233.203125 108.585938 Z M 230.078125 105.855469 "/>
</g>
<g clip-path="url(#clip2)" clip-rule="nonzero">
<path style=" stroke:none;fill-rule:nonzero;fill:rgb(1.960784%,74.117647%,72.941176%);fill-opacity:1;" d="M 230.078125 436.78125 L 230.078125 334.144531 L 233.203125 331.414062 L 267.578125 331.414062 L 270.3125 334.144531 L 270.3125 436.78125 L 267.578125 439.902344 L 233.203125 439.902344 Z M 230.078125 436.78125 "/>
</g>
</g>
</svg>
