<?xml version="1.0" encoding="UTF-8"?>
<svg xmlns="http://www.w3.org/2000/svg" xmlns:xlink="http://www.w3.org/1999/xlink" width="500px" height="500px" viewBox="0 0 500 1066" version="1.1">
<g id="surface1">
<path style=" stroke:none;fill-rule:nonzero;fill:rgb(0%,92.941176%,39.215686%);fill-opacity:1;" d="M 342.875 118.902344 C 297.894531 65.640625 259.164062 11.546875 251.664062 0.3125 C 250.832031 -0.105469 249.582031 -0.105469 248.75 0.3125 C 240.835938 11.546875 202.105469 65.640625 157.125 118.902344 C -228.546875 608.261719 217.929688 939.078125 217.929688 939.078125 L 221.679688 941.574219 C 225.011719 992.339844 233.339844 1065.992188 233.339844 1065.992188 L 266.242188 1065.992188 C 266.242188 1065.992188 274.574219 992.757812 277.902344 941.574219 L 281.652344 938.660156 C 282.070312 938.660156 728.546875 608.261719 342.875 118.902344 Z M 250 931.585938 C 250 931.585938 230.007812 914.527344 224.59375 905.789062 L 224.59375 904.957031 L 248.75 371.492188 C 248.75 369.828125 251.25 369.828125 251.25 371.492188 L 274.988281 904.957031 L 274.988281 905.789062 C 269.574219 914.527344 250 931.585938 250 931.585938 Z M 250 931.585938 "/>
</g>
</svg>
