<?xml version="1.0" encoding="UTF-8"?>
<svg xmlns="http://www.w3.org/2000/svg" xmlns:xlink="http://www.w3.org/1999/xlink" width="500px" height="500px" viewBox="0 0 500 500" version="1.1">
<g id="surface1">
<path style="fill:none;stroke-width:2;stroke-linecap:butt;stroke-linejoin:miter;stroke:rgb(31.372549%,38.039216%,42.352941%);stroke-opacity:1;stroke-miterlimit:4;" d="M 767.99978 625.868406 C 767.776913 625.639515 767.656444 625.362437 767.632351 625.031148 C 767.59621 624.705883 767.415507 624.549274 767.090241 624.567344 C 766.867374 624.585414 766.662578 624.639625 766.469828 624.736 C 766.216843 624.880563 765.945789 624.94682 765.650641 624.94682 L 627.762178 625.31425 C 626.973108 625.31425 626.214156 625.627468 625.66 626.193671 C 625.09982 626.753851 624.798649 627.50678 624.804672 628.301873 C 625.027539 674.483546 624.973328 719.689421 624.629992 763.907454 C 624.623969 764.871204 624.545664 765.877117 624.401102 766.925195 C 624.352914 767.262507 624.491453 767.479351 624.810695 767.575726 L 626.129828 767.997366 " transform="matrix(0.648509,0,0,0.648509,0.972763,0.821984)"/>
<path style="fill:none;stroke-width:2;stroke-linecap:butt;stroke-linejoin:miter;stroke:rgb(31.372549%,38.039216%,42.352941%);stroke-opacity:1;stroke-miterlimit:4;" d="M 142.176984 767.997366 C 143.237108 767.792569 143.676819 766.575835 143.502139 764.347165 C 143.339506 762.257033 143.261202 761.016205 143.261202 760.618659 C 143.206991 717.177649 143.200967 673.062015 143.249155 628.27778 C 143.249155 626.645429 141.930023 625.326297 140.303695 625.320273 L 2.800733 624.91068 C 2.493538 624.91068 2.21646 624.814305 1.969499 624.633602 C 1.614116 624.356524 1.240663 624.272196 0.861187 624.368571 C 0.541945 624.452899 0.379312 624.651672 0.367265 624.970914 C 0.349195 625.33232 0.228726 625.507 -0.000164062 625.500976 " transform="matrix(0.648509,0,0,0.648509,0.972763,0.821984)"/>
<path style="fill:none;stroke-width:2;stroke-linecap:butt;stroke-linejoin:miter;stroke:rgb(31.372549%,38.039216%,42.352941%);stroke-opacity:1;stroke-miterlimit:4;" d="M -0.000164062 144.987513 L 142.839561 144.903185 C 143.17085 144.903185 143.339506 144.734529 143.339506 144.397217 C 143.188921 97.842092 143.164827 51.220709 143.237108 4.539091 C 143.243132 2.647733 141.719203 1.111757 139.827844 1.09971 C 105.482221 0.912984 69.540387 0.708187 31.99632 0.479297 C 24.689894 0.437133 14.028415 0.539531 -0.000164062 0.768421 " transform="matrix(0.648509,0,0,0.648509,0.972763,0.821984)"/>
<path style="fill:none;stroke-width:2;stroke-linecap:butt;stroke-linejoin:miter;stroke:rgb(31.372549%,38.039216%,42.352941%);stroke-opacity:1;stroke-miterlimit:4;" d="M 764.873618 1.382812 C 763.668931 1.196085 762.416056 1.093687 761.096924 1.087664 C 719.288265 0.810586 679.46734 0.611812 641.622101 0.491344 C 635.899838 0.479297 630.153482 1.087664 624.46736 0.629882 C 624.124024 0.605789 623.949344 0.768421 623.949344 1.117781 C 624.015602 43.504689 624.039696 88.800917 624.015602 137.000439 C 624.015602 139.349579 624.118 141.668601 624.31075 143.969553 C 624.346891 144.379147 624.67818 144.704412 625.087773 144.722482 C 626.690007 144.776693 628.322358 144.80681 630.002896 144.80681 C 674.606428 144.915232 720.34839 144.975467 767.21071 144.98149 C 767.602233 144.98149 767.77089 144.782717 767.716679 144.397217 C 767.439601 142.240827 767.252874 139.897711 767.252874 137.687111 C 767.246851 93.204047 767.216734 48.678819 767.162523 4.117451 C 767.162523 2.527264 766.391523 1.611702 764.873618 1.382812 " transform="matrix(0.648509,0,0,0.648509,0.972763,0.821984)"/>
<path style="fill:none;stroke-width:2;stroke-linecap:butt;stroke-linejoin:miter;stroke:rgb(62.352941%,65.882353%,68.627451%);stroke-opacity:1;stroke-miterlimit:4;" d="M 247.55697 156.281453 C 242.78641 156.329641 235.853437 156.269406 226.752027 156.112797 C 186.852797 155.426125 153.440806 154.67922 126.497984 153.89015 C 119.625245 153.691376 114.79445 154.070853 112.0056 155.028579 C 107.150712 156.709117 100.440606 159.208842 98.392638 164.60584 C 97.248186 167.58744 96.760288 170.502782 96.928944 173.351866 C 97.386725 181.411222 106.897728 187.302141 113.481342 190.560819 C 121.685259 194.626637 129.961458 198.590057 138.309939 202.445055 " transform="matrix(0.648509,0,0,0.648509,0.972763,0.821984)"/>
<path style="fill:none;stroke-width:2;stroke-linecap:butt;stroke-linejoin:miter;stroke:rgb(14.509804%,23.137255%,30.196078%);stroke-opacity:1;stroke-miterlimit:4;" d="M 138.309939 202.445055 C 137.412447 202.77032 136.563143 202.589617 135.762026 201.902946 C 135.424714 201.607798 135.027167 201.517446 134.587456 201.619845 C 133.762246 201.818618 133.105691 201.595751 132.62984 200.957267 C 132.545512 200.848845 132.412996 200.776564 132.26241 200.782587 C 132.123871 200.788611 131.985332 200.860892 131.913051 200.98136 L 131.714278 201.282532 C 131.401059 201.740313 131.461294 202.143883 131.888957 202.481196 C 132.732238 203.15582 133.665871 203.450969 134.701901 203.366641 C 135.075354 203.336523 135.412667 203.432898 135.707815 203.661789 C 136.41858 204.197874 137.219697 204.54121 138.117189 204.679749 C 138.580993 204.75203 139.002634 204.980921 139.309829 205.33028 C 139.894102 205.998881 140.598844 206.50485 141.442125 206.848186 C 143.369624 207.655326 144.339397 209.11902 144.357467 211.245293 C 144.634545 241.199833 144.755014 272.286778 144.718873 304.500106 C 144.718873 304.994027 144.718873 305.493972 144.718873 305.999941 C 144.983904 336.689339 145.200748 367.390785 145.357357 398.080184 C 145.387474 403.145892 146.025958 408.470608 146.038005 413.698949 C 146.074146 480.793986 145.670576 541.865588 144.833318 596.913756 C 144.706826 604.834573 144.483959 613.237264 144.158694 622.109783 C 144.146647 622.615751 143.887639 622.898853 143.387694 622.953064 C 143.255178 622.96511 143.158803 623.043415 143.092546 623.194001 C 142.857632 623.687923 143.014241 623.92886 143.57442 623.91079 C 144.086412 623.892719 144.351443 624.151727 144.357467 624.681789 C 144.36349 624.790211 144.429748 624.892609 144.526123 624.934773 C 144.628521 624.982961 144.742967 624.964891 144.833318 624.904656 C 145.592271 624.290266 146.471692 623.989094 147.453512 623.983071 C 305.430129 623.983071 463.334464 623.983071 621.172541 623.983071 C 622.045939 623.983071 622.732611 624.33243 623.232556 625.049219 C 623.322907 625.169687 623.48554 625.217875 623.624079 625.157641 C 623.768641 625.109453 623.852969 624.958867 623.840922 624.808281 C 623.762618 624.163774 624.033672 623.820438 624.666133 623.778274 C 625.364851 623.730087 625.437133 623.501196 624.876953 623.079556 C 624.762508 622.989204 624.636016 622.904876 624.509524 622.820548 C 624.202329 622.597681 624.045719 622.302533 624.039696 621.917033 C 623.931274 616.989863 623.461446 612.0386 623.449399 607.033126 C 623.431329 572.988674 623.569868 539.094809 622.967524 505.261177 C 621.937517 447.851823 622.431439 390.526797 621.931494 333.002998 C 621.877283 326.913305 622.051962 320.510394 622.461556 313.782218 C 622.979571 305.126543 623.208462 296.735899 623.136181 288.610285 C 623.136181 288.357301 623.196415 288.116364 623.31086 287.887473 C 623.359048 287.791098 623.389165 287.682676 623.401212 287.574255 C 623.413259 287.188755 623.340977 286.833372 623.196415 286.502083 C 623.051853 286.164771 623.057876 285.839506 623.208462 285.508217 C 623.377118 285.158857 623.455423 284.785404 623.449399 284.387858 C 623.232556 268.106514 623.328931 252.210671 623.744548 236.68828 C 623.943321 229.020448 623.90718 222.334436 623.630102 216.648314 C 623.557821 215.280994 623.575891 213.991979 623.67829 212.787292 C 623.768641 211.582605 623.840922 210.347801 623.88911 209.08288 C 623.90718 208.655216 624.105954 208.360068 624.497477 208.191412 C 624.822742 208.052873 625.057656 207.830005 625.232336 207.52281 C 625.533508 206.902397 625.376898 206.727717 624.750461 207.016842 L 612.890319 212.335534 " transform="matrix(0.648509,0,0,0.648509,0.972763,0.821984)"/>
<path style="fill:none;stroke-width:2;stroke-linecap:butt;stroke-linejoin:miter;stroke:rgb(62.352941%,65.882353%,68.627451%);stroke-opacity:1;stroke-miterlimit:4;" d="M 612.890319 212.335534 C 614.878052 210.859793 616.938067 209.600895 619.070362 208.558841 C 632.321918 202.101719 646.597458 195.680738 658.849124 187.994836 C 667.709596 182.429182 675.564154 174.737256 670.895993 163.148168 C 669.787681 160.389435 667.408424 158.311351 663.752199 156.901867 C 658.710585 154.944251 654.042423 154.010618 649.741691 154.076876 C 642.983397 154.203368 635.743229 154.462376 628.009139 154.877993 C 613.179443 155.667063 598.325654 156.088703 583.447771 156.154961 " transform="matrix(0.648509,0,0,0.648509,0.972763,0.821984)"/>
<path style="fill:none;stroke-width:2;stroke-linecap:butt;stroke-linejoin:miter;stroke:rgb(14.509804%,23.137255%,30.196078%);stroke-opacity:1;stroke-miterlimit:4;" d="M 583.447771 156.154961 C 583.676661 155.962211 583.97181 155.841742 584.351286 155.787531 C 584.477778 155.769461 584.538012 155.69718 584.531989 155.570688 C 584.531989 155.480336 584.525966 155.383961 584.507895 155.305657 C 584.447661 154.980391 584.260934 154.817759 583.941692 154.811735 C 565.552147 154.245532 547.373422 154.600915 528.971829 154.853899 C 523.165238 154.920157 516.708117 154.751501 509.606487 154.32986 C 499.758172 153.745587 490.277286 153.667283 481.175877 154.106993 C 478.555683 154.227462 475.953559 153.552837 473.321318 153.619095 C 468.839883 153.73354 464.460846 153.070963 459.979411 153.058916 C 432.681206 152.992658 406.358797 152.998681 381.018208 153.083009 C 376.350046 153.095056 371.519252 153.354064 366.537871 153.847986 C 364.321248 154.070853 362.020296 154.052782 359.616945 153.805822 C 357.183478 153.564884 354.858432 153.54079 352.653855 153.739564 C 350.895012 153.902196 349.124122 154.016642 347.329139 154.088923 C 343.03443 154.275649 338.516854 154.510563 333.770388 154.799688 C 330.499663 154.998462 325.048455 154.962321 317.422787 154.67922 C 312.140235 154.480446 306.71312 154.402142 301.147467 154.444306 C 284.842029 154.540681 267.241554 154.510563 248.340016 154.347931 C 247.502759 154.347931 246.659478 154.618985 245.816197 154.751501 C 245.527073 154.799688 245.304205 155.052672 245.292159 155.347821 L 245.280112 155.618875 C 245.280112 155.709227 245.316252 155.787531 245.376487 155.841742 C 245.442744 155.901977 245.533096 155.920047 245.605377 155.901977 C 246.3824 155.751391 247.032931 155.883906 247.55697 156.281453 " transform="matrix(0.648509,0,0,0.648509,0.972763,0.821984)"/>
<path style="fill:none;stroke-width:2;stroke-linecap:butt;stroke-linejoin:miter;stroke:rgb(52.54902%,57.254902%,61.568627%);stroke-opacity:1;stroke-miterlimit:4;" d="M 583.447771 156.154961 C 583.188763 156.070633 582.875544 156.028469 582.496068 156.028469 C 563.389734 156.070633 543.843689 156.179055 523.857933 156.371805 C 511.214744 156.480226 498.155938 156.251336 485.404328 156.419992 C 479.910955 156.498297 473.911615 157.413859 468.88807 159.172702 C 462.73212 161.323068 459.660169 168.039197 459.678239 174.526436 C 459.678239 179.170504 468.014672 185.019259 471.496217 186.850383 C 483.079282 192.934052 494.6503 198.493682 505.992427 205.69771 C 519.575271 214.335315 527.694861 226.514699 530.339149 242.235863 C 533.802624 262.781798 534.423037 283.261476 534.519412 303.921856 C 534.700115 341.586392 533.417124 379.684615 530.676461 418.210502 C 528.83329 444.11127 525.83362 471.560061 514.840852 494.774378 C 503.366209 519.042795 483.422618 532.968976 457.708576 537.829887 C 438.596218 541.443948 418.965845 541.486112 398.799387 537.97445 C 387.017549 535.914435 376.271742 532.390726 366.561965 527.379228 C 328.602281 507.821137 320.422457 461.121449 317.856474 422.529304 C 316.6036 403.724142 315.784412 384.467222 315.392889 364.770591 C 314.652007 328.021617 314.62189 293.043533 315.27242 259.854409 C 315.42903 251.746866 315.904881 243.561019 316.585529 235.489617 C 317.260154 227.689269 319.073208 219.83471 325.150853 214.479877 C 329.240765 210.877863 333.800505 207.974568 338.559018 205.245952 C 349.913192 198.782807 360.67707 193.108732 370.856674 188.217703 C 375.151383 186.157688 378.825678 183.362815 381.867512 179.833082 C 383.686589 177.718856 383.89741 175.369717 383.728753 172.713382 C 383.451675 168.496978 382.686699 163.473434 379.030475 161.039966 C 374.663485 158.154741 369.645964 156.636836 363.971888 156.492273 C 353.099589 156.215195 342.347759 156.160984 331.72242 156.323617 C 303.677309 156.751281 275.590034 156.52239 247.55697 156.281453 " transform="matrix(0.648509,0,0,0.648509,0.972763,0.821984)"/>
<path style="fill:none;stroke-width:2;stroke-linecap:butt;stroke-linejoin:miter;stroke:rgb(52.54902%,57.254902%,61.568627%);stroke-opacity:1;stroke-miterlimit:4;" d="M 612.890319 212.335534 C 608.173969 214.540111 604.903244 217.973469 603.07212 222.647654 C 601.102457 227.677222 599.915841 233.610305 599.518294 240.452927 C 597.6691 272.196426 595.729554 304.54227 593.699656 337.490456 C 591.525196 372.787782 588.688159 404.802337 585.18252 433.540143 C 582.598467 454.766726 578.43025 477.312441 571.924941 497.551181 C 565.503959 517.573077 555.691785 535.848177 542.488416 552.370458 C 520.671537 579.692757 487.554694 597.34142 453.630711 606.153705 C 436.668719 610.556835 419.014033 613.303521 400.660628 614.381716 C 350.949223 617.321152 299.478975 610.502624 255.760888 586.216137 C 227.884433 570.73591 205.037546 546.371117 192.201607 517.073132 C 182.112354 494.027472 177.630919 467.939977 175.558858 442.509037 C 174.149374 425.155522 173.065156 403.953032 172.312226 378.901568 C 171.264149 344.333078 170.312446 310.053712 169.469165 276.069495 C 169.089689 260.932604 168.445181 245.78969 167.535643 230.640752 C 167.240495 225.719606 165.891245 217.630133 161.686888 214.443737 C 158.795639 212.23916 155.518891 210.287567 151.850619 208.582935 C 147.333044 206.480756 142.821491 204.438812 138.309939 202.445055 " transform="matrix(0.648509,0,0,0.648509,0.972763,0.821984)"/>
<path style=" stroke:none;fill-rule:nonzero;fill:rgb(24.313725%,31.764706%,37.254902%);fill-opacity:1;" d="M 0.972656 0.820312 L 499.027344 0.820312 L 499.027344 406.703125 C 498.882812 406.554688 498.804688 406.375 498.789062 406.160156 C 498.765625 405.945312 498.648438 405.847656 498.4375 405.859375 C 498.292969 405.871094 498.160156 405.90625 498.035156 405.96875 C 497.871094 406.0625 497.695312 406.105469 497.503906 406.105469 L 408.082031 406.34375 C 407.570312 406.34375 407.078125 406.546875 406.71875 406.914062 C 406.355469 407.277344 406.160156 407.765625 406.164062 408.28125 C 406.308594 438.230469 406.273438 467.546875 406.050781 496.222656 C 406.042969 496.847656 405.996094 497.5 405.902344 498.179688 C 405.871094 498.398438 405.960938 498.539062 406.167969 498.601562 L 407.023438 498.875 L 93.175781 498.875 C 93.863281 498.742188 94.148438 497.953125 94.035156 496.507812 C 93.929688 495.152344 93.878906 494.347656 93.878906 494.089844 C 93.84375 465.917969 93.839844 437.308594 93.871094 408.265625 C 93.871094 407.207031 93.015625 406.351562 91.960938 406.347656 L 2.789062 406.082031 C 2.589844 406.082031 2.410156 406.019531 2.25 405.902344 C 2.019531 405.722656 1.777344 405.667969 1.53125 405.730469 C 1.324219 405.785156 1.21875 405.914062 1.210938 406.121094 C 1.199219 406.355469 1.121094 406.46875 0.972656 406.464844 L 0.972656 94.847656 L 93.605469 94.792969 C 93.820312 94.792969 93.929688 94.683594 93.929688 94.464844 C 93.832031 64.273438 93.816406 34.039062 93.863281 3.765625 C 93.867188 2.539062 92.878906 1.542969 91.652344 1.535156 C 69.378906 1.414062 46.070312 1.28125 21.722656 1.132812 C 16.984375 1.105469 10.070312 1.171875 0.972656 1.320312 Z M 497 1.71875 C 496.21875 1.597656 495.40625 1.53125 494.550781 1.527344 C 467.4375 1.347656 441.613281 1.21875 417.066406 1.140625 C 413.359375 1.132812 409.632812 1.527344 405.945312 1.230469 C 405.722656 1.214844 405.609375 1.320312 405.609375 1.546875 C 405.652344 29.035156 405.667969 58.410156 405.652344 89.667969 C 405.652344 91.191406 405.71875 92.695312 405.84375 94.1875 C 405.867188 94.453125 406.082031 94.664062 406.347656 94.675781 C 407.386719 94.710938 408.445312 94.730469 409.53125 94.730469 C 438.460938 94.800781 468.121094 94.839844 498.515625 94.839844 C 498.769531 94.839844 498.878906 94.714844 498.84375 94.464844 C 498.664062 93.066406 498.539062 91.546875 498.539062 90.113281 C 498.535156 61.265625 498.519531 32.390625 498.484375 3.492188 C 498.484375 2.460938 497.984375 1.867188 497 1.71875 Z M 161.515625 102.171875 C 158.421875 102.203125 153.925781 102.164062 148.023438 102.0625 C 122.148438 101.617188 100.480469 101.132812 83.007812 100.621094 C 78.550781 100.492188 75.417969 100.738281 73.609375 101.359375 C 70.460938 102.449219 66.109375 104.070312 64.78125 107.570312 C 64.039062 109.503906 63.722656 111.394531 63.832031 113.242188 C 64.128906 118.46875 70.296875 122.289062 74.566406 124.402344 C 79.886719 127.039062 85.253906 129.609375 90.667969 132.109375 C 90.085938 132.320312 89.535156 132.203125 89.015625 131.757812 C 88.796875 131.566406 88.539062 131.507812 88.253906 131.574219 C 87.71875 131.703125 87.292969 131.558594 86.984375 131.144531 C 86.929688 131.074219 86.84375 131.027344 86.746094 131.03125 C 86.65625 131.035156 86.566406 131.082031 86.519531 131.160156 L 86.390625 131.355469 C 86.1875 131.652344 86.226562 131.914062 86.503906 132.132812 C 87.050781 132.570312 87.65625 132.761719 88.328125 132.707031 C 88.570312 132.6875 88.789062 132.75 88.980469 132.898438 C 89.441406 133.246094 89.960938 133.46875 90.542969 133.558594 C 90.84375 133.605469 91.117188 133.753906 91.316406 133.980469 C 91.695312 134.414062 92.152344 134.742188 92.699219 134.964844 C 93.949219 135.488281 94.578125 136.4375 94.589844 137.816406 C 94.769531 157.242188 94.847656 177.402344 94.824219 198.292969 C 94.824219 198.613281 94.824219 198.9375 94.824219 199.265625 C 94.996094 219.167969 95.136719 239.078125 95.238281 258.980469 C 95.257812 262.265625 95.671875 265.71875 95.679688 269.109375 C 95.703125 312.617188 95.441406 352.226562 94.898438 387.925781 C 94.816406 393.0625 94.671875 398.511719 94.460938 404.265625 C 94.453125 404.59375 94.285156 404.777344 93.960938 404.8125 C 93.875 404.820312 93.8125 404.871094 93.769531 404.96875 C 93.617188 405.289062 93.71875 405.445312 94.082031 405.433594 C 94.414062 405.421875 94.585938 405.589844 94.589844 405.933594 C 94.59375 406.003906 94.636719 406.070312 94.699219 406.097656 C 94.765625 406.128906 94.839844 406.117188 94.898438 406.078125 C 95.390625 405.679688 95.960938 405.484375 96.597656 405.480469 C 199.046875 405.480469 301.449219 405.480469 403.808594 405.480469 C 404.375 405.480469 404.820312 405.707031 405.144531 406.171875 C 405.203125 406.25 405.308594 406.28125 405.398438 406.242188 C 405.492188 406.210938 405.546875 406.113281 405.539062 406.015625 C 405.484375 405.597656 405.664062 405.375 406.074219 405.347656 C 406.527344 405.316406 406.574219 405.167969 406.210938 404.894531 C 406.136719 404.835938 406.054688 404.78125 405.972656 404.726562 C 405.773438 404.582031 405.671875 404.390625 405.667969 404.140625 C 405.597656 400.945312 405.292969 397.734375 405.285156 394.488281 C 405.273438 372.410156 405.363281 350.425781 404.972656 328.488281 C 404.304688 291.257812 404.625 254.082031 404.300781 216.773438 C 404.265625 212.828125 404.378906 208.675781 404.644531 204.3125 C 404.980469 198.699219 405.128906 193.257812 405.082031 187.988281 C 405.082031 187.824219 405.121094 187.667969 405.195312 187.519531 C 405.226562 187.457031 405.246094 187.386719 405.253906 187.316406 C 405.261719 187.066406 405.214844 186.835938 405.121094 186.621094 C 405.027344 186.402344 405.03125 186.191406 405.128906 185.976562 C 405.238281 185.75 405.289062 185.507812 405.285156 185.25 C 405.144531 174.691406 405.203125 164.382812 405.476562 154.316406 C 405.605469 149.34375 405.582031 145.007812 405.402344 141.320312 C 405.355469 140.433594 405.367188 139.597656 405.433594 138.816406 C 405.492188 138.035156 405.539062 137.234375 405.570312 136.414062 C 405.582031 136.136719 405.710938 135.945312 405.964844 135.835938 C 406.175781 135.746094 406.328125 135.601562 406.441406 135.402344 C 406.636719 135 406.535156 134.886719 406.128906 135.074219 L 398.4375 138.523438 C 399.726562 137.566406 401.0625 136.75 402.445312 136.074219 C 411.039062 131.886719 420.296875 127.722656 428.242188 122.738281 C 433.988281 119.128906 439.082031 114.140625 436.054688 106.625 C 435.335938 104.835938 433.792969 103.488281 431.421875 102.574219 C 428.152344 101.304688 425.125 100.699219 422.335938 100.742188 C 417.953125 100.824219 413.257812 100.992188 408.242188 101.261719 C 398.625 101.773438 388.992188 102.046875 379.34375 102.089844 C 379.492188 101.964844 379.683594 101.886719 379.929688 101.851562 C 380.011719 101.839844 380.050781 101.792969 380.046875 101.710938 C 380.046875 101.652344 380.042969 101.589844 380.03125 101.539062 C 379.992188 101.328125 379.871094 101.222656 379.664062 101.21875 C 367.738281 100.851562 355.949219 101.082031 344.015625 101.246094 C 340.25 101.289062 336.0625 101.179688 331.457031 100.90625 C 325.070312 100.527344 318.921875 100.476562 313.019531 100.761719 C 311.320312 100.839844 309.632812 100.402344 307.925781 100.445312 C 305.019531 100.519531 302.179688 100.089844 299.273438 100.082031 C 281.570312 100.039062 264.5 100.042969 248.066406 100.097656 C 245.039062 100.105469 241.90625 100.273438 238.675781 100.59375 C 237.238281 100.738281 235.746094 100.726562 234.1875 100.566406 C 232.609375 100.410156 231.097656 100.394531 229.671875 100.523438 C 228.53125 100.628906 227.382812 100.703125 226.21875 100.75 C 223.433594 100.871094 220.503906 101.023438 217.425781 101.210938 C 215.304688 101.339844 211.769531 101.316406 206.820312 101.132812 C 203.398438 101.003906 199.878906 100.953125 196.269531 100.980469 C 185.695312 101.042969 174.28125 101.023438 162.023438 100.917969 C 161.480469 100.917969 160.933594 101.09375 160.386719 101.179688 C 160.199219 101.210938 160.054688 101.375 160.046875 101.566406 L 160.039062 101.742188 C 160.039062 101.800781 160.0625 101.851562 160.101562 101.886719 C 160.144531 101.925781 160.203125 101.9375 160.25 101.925781 C 160.753906 101.828125 161.175781 101.914062 161.515625 102.171875 Z M 161.515625 102.171875 "/>
<path style=" stroke:none;fill-rule:nonzero;fill:rgb(100%,100%,100%);fill-opacity:1;" d="M 161.515625 102.171875 C 179.695312 102.328125 197.910156 102.476562 216.097656 102.199219 C 222.988281 102.09375 229.960938 102.128906 237.011719 102.308594 C 240.691406 102.402344 243.945312 103.386719 246.777344 105.257812 C 249.148438 106.835938 249.644531 110.09375 249.824219 112.828125 C 249.933594 114.550781 249.796875 116.074219 248.617188 117.441406 C 246.644531 119.734375 244.261719 121.546875 241.476562 122.882812 C 234.875 126.054688 227.894531 129.734375 220.53125 133.925781 C 217.445312 135.695312 214.488281 137.578125 211.835938 139.914062 C 207.894531 143.386719 206.71875 148.480469 206.28125 153.539062 C 205.839844 158.773438 205.53125 164.082031 205.425781 169.339844 C 205.007812 190.863281 205.027344 213.546875 205.507812 237.378906 C 205.761719 250.152344 206.292969 262.640625 207.105469 274.835938 C 208.769531 299.863281 214.074219 330.148438 238.691406 342.832031 C 244.988281 346.082031 251.957031 348.367188 259.597656 349.703125 C 272.671875 351.980469 285.40625 351.953125 297.800781 349.609375 C 314.476562 346.457031 327.410156 337.425781 334.851562 321.6875 C 341.980469 306.632812 343.925781 288.832031 345.121094 272.035156 C 346.898438 247.046875 347.726562 222.34375 347.613281 197.917969 C 347.550781 184.519531 347.148438 171.238281 344.902344 157.914062 C 343.1875 147.714844 337.921875 139.820312 329.113281 134.21875 C 321.757812 129.546875 314.253906 125.941406 306.742188 121.996094 C 304.480469 120.808594 299.078125 117.015625 299.078125 114.003906 C 299.066406 109.796875 301.058594 105.441406 305.050781 104.046875 C 308.308594 102.90625 312.199219 102.3125 315.761719 102.261719 C 324.03125 102.152344 332.5 102.300781 340.699219 102.230469 C 353.660156 102.105469 366.335938 102.035156 378.726562 102.007812 C 378.972656 102.007812 379.175781 102.035156 379.34375 102.089844 C 388.992188 102.046875 398.625 101.773438 408.242188 101.261719 C 413.257812 100.992188 417.953125 100.824219 422.335938 100.742188 C 425.125 100.699219 428.152344 101.304688 431.421875 102.574219 C 433.792969 103.488281 435.335938 104.835938 436.054688 106.625 C 439.082031 114.140625 433.988281 119.128906 428.242188 122.738281 C 420.296875 127.722656 411.039062 131.886719 402.445312 136.074219 C 401.0625 136.75 399.726562 137.566406 398.4375 138.523438 C 395.378906 139.953125 393.257812 142.179688 392.070312 145.210938 C 390.792969 148.472656 390.023438 152.320312 389.765625 156.757812 C 388.566406 177.34375 387.308594 198.320312 385.992188 219.6875 C 384.582031 242.578125 382.742188 263.339844 380.46875 281.976562 C 378.792969 295.742188 376.089844 310.363281 371.871094 323.488281 C 367.707031 336.46875 361.34375 348.324219 352.78125 359.039062 C 338.632812 376.757812 317.15625 388.203125 295.15625 393.917969 C 284.15625 396.773438 272.707031 398.550781 260.804688 399.25 C 228.566406 401.160156 195.1875 396.738281 166.835938 380.988281 C 148.757812 370.949219 133.941406 355.148438 125.617188 336.148438 C 119.070312 321.203125 116.167969 304.285156 114.824219 287.792969 C 113.910156 276.539062 113.207031 262.789062 112.71875 246.542969 C 112.039062 224.125 111.421875 201.894531 110.875 179.855469 C 110.628906 170.035156 110.210938 160.21875 109.621094 150.394531 C 109.429688 147.203125 108.554688 141.957031 105.828125 139.890625 C 103.953125 138.460938 101.828125 137.195312 99.449219 136.089844 C 96.519531 134.726562 93.59375 133.402344 90.667969 132.109375 C 85.253906 129.609375 79.886719 127.039062 74.566406 124.402344 C 70.296875 122.289062 64.128906 118.46875 63.832031 113.242188 C 63.722656 111.394531 64.039062 109.503906 64.78125 107.570312 C 66.109375 104.070312 70.460938 102.449219 73.609375 101.359375 C 75.417969 100.738281 78.550781 100.492188 83.007812 100.621094 C 100.480469 101.132812 122.148438 101.617188 148.023438 102.0625 C 153.925781 102.164062 158.421875 102.203125 161.515625 102.171875 Z M 161.515625 102.171875 "/>
<path style=" stroke:none;fill-rule:nonzero;fill:rgb(4.705882%,14.509804%,23.137255%);fill-opacity:1;" d="M 379.34375 102.089844 C 379.175781 102.035156 378.972656 102.007812 378.726562 102.007812 C 366.335938 102.035156 353.660156 102.105469 340.699219 102.230469 C 332.5 102.300781 324.03125 102.152344 315.761719 102.261719 C 312.199219 102.3125 308.308594 102.90625 305.050781 104.046875 C 301.058594 105.441406 299.066406 109.796875 299.078125 114.003906 C 299.078125 117.015625 304.480469 120.808594 306.742188 121.996094 C 314.253906 125.941406 321.757812 129.546875 329.113281 134.21875 C 337.921875 139.820312 343.1875 147.714844 344.902344 157.914062 C 347.148438 171.238281 347.550781 184.519531 347.613281 197.917969 C 347.726562 222.34375 346.898438 247.046875 345.121094 272.035156 C 343.925781 288.832031 341.980469 306.632812 334.851562 321.6875 C 327.410156 337.425781 314.476562 346.457031 297.800781 349.609375 C 285.40625 351.953125 272.671875 351.980469 259.597656 349.703125 C 251.957031 348.367188 244.988281 346.082031 238.691406 342.832031 C 214.074219 330.148438 208.769531 299.863281 207.105469 274.835938 C 206.292969 262.640625 205.761719 250.152344 205.507812 237.378906 C 205.027344 213.546875 205.007812 190.863281 205.425781 169.339844 C 205.53125 164.082031 205.839844 158.773438 206.28125 153.539062 C 206.71875 148.480469 207.894531 143.386719 211.835938 139.914062 C 214.488281 137.578125 217.445312 135.695312 220.53125 133.925781 C 227.894531 129.734375 234.875 126.054688 241.476562 122.882812 C 244.261719 121.546875 246.644531 119.734375 248.617188 117.441406 C 249.796875 116.074219 249.933594 114.550781 249.824219 112.828125 C 249.644531 110.09375 249.148438 106.835938 246.777344 105.257812 C 243.945312 103.386719 240.691406 102.402344 237.011719 102.308594 C 229.960938 102.128906 222.988281 102.09375 216.097656 102.199219 C 197.910156 102.476562 179.695312 102.328125 161.515625 102.171875 C 161.175781 101.914062 160.753906 101.828125 160.25 101.925781 C 160.203125 101.9375 160.144531 101.925781 160.101562 101.886719 C 160.0625 101.851562 160.039062 101.800781 160.039062 101.742188 L 160.046875 101.566406 C 160.054688 101.375 160.199219 101.210938 160.386719 101.179688 C 160.933594 101.09375 161.480469 100.917969 162.023438 100.917969 C 174.28125 101.023438 185.695312 101.042969 196.269531 100.980469 C 199.878906 100.953125 203.398438 101.003906 206.820312 101.132812 C 211.769531 101.316406 215.304688 101.339844 217.425781 101.210938 C 220.503906 101.023438 223.433594 100.871094 226.21875 100.75 C 227.382812 100.703125 228.53125 100.628906 229.671875 100.523438 C 231.097656 100.394531 232.609375 100.410156 234.1875 100.566406 C 235.746094 100.726562 237.238281 100.738281 238.675781 100.59375 C 241.90625 100.273438 245.039062 100.105469 248.066406 100.097656 C 264.5 100.042969 281.570312 100.039062 299.273438 100.082031 C 302.179688 100.089844 305.019531 100.519531 307.925781 100.445312 C 309.632812 100.402344 311.320312 100.839844 313.019531 100.761719 C 318.921875 100.476562 325.070312 100.527344 331.457031 100.90625 C 336.0625 101.179688 340.25 101.289062 344.015625 101.246094 C 355.949219 101.082031 367.738281 100.851562 379.664062 101.21875 C 379.871094 101.222656 379.992188 101.328125 380.03125 101.539062 C 380.042969 101.589844 380.046875 101.652344 380.046875 101.710938 C 380.050781 101.792969 380.011719 101.839844 379.929688 101.851562 C 379.683594 101.886719 379.492188 101.964844 379.34375 102.089844 Z M 379.34375 102.089844 "/>
<path style=" stroke:none;fill-rule:nonzero;fill:rgb(4.705882%,14.509804%,23.137255%);fill-opacity:1;" d="M 90.667969 132.109375 C 93.59375 133.402344 96.519531 134.726562 99.449219 136.089844 C 101.828125 137.195312 103.953125 138.460938 105.828125 139.890625 C 108.554688 141.957031 109.429688 147.203125 109.621094 150.394531 C 110.210938 160.21875 110.628906 170.035156 110.875 179.855469 C 111.421875 201.894531 112.039062 224.125 112.71875 246.542969 C 113.207031 262.789062 113.910156 276.539062 114.824219 287.792969 C 116.167969 304.285156 119.070312 321.203125 125.617188 336.148438 C 133.941406 355.148438 148.757812 370.949219 166.835938 380.988281 C 195.1875 396.738281 228.566406 401.160156 260.804688 399.25 C 272.707031 398.550781 284.15625 396.773438 295.15625 393.917969 C 317.15625 388.203125 338.632812 376.757812 352.78125 359.039062 C 361.34375 348.324219 367.707031 336.46875 371.871094 323.488281 C 376.089844 310.363281 378.792969 295.742188 380.46875 281.976562 C 382.742188 263.339844 384.582031 242.578125 385.992188 219.6875 C 387.308594 198.320312 388.566406 177.34375 389.765625 156.757812 C 390.023438 152.320312 390.792969 148.472656 392.070312 145.210938 C 393.257812 142.179688 395.378906 139.953125 398.4375 138.523438 L 406.128906 135.074219 C 406.535156 134.886719 406.636719 135 406.441406 135.402344 C 406.328125 135.601562 406.175781 135.746094 405.964844 135.835938 C 405.710938 135.945312 405.582031 136.136719 405.570312 136.414062 C 405.539062 137.234375 405.492188 138.035156 405.433594 138.816406 C 405.367188 139.597656 405.355469 140.433594 405.402344 141.320312 C 405.582031 145.007812 405.605469 149.34375 405.476562 154.316406 C 405.203125 164.382812 405.144531 174.691406 405.285156 185.25 C 405.289062 185.507812 405.238281 185.75 405.128906 185.976562 C 405.03125 186.191406 405.027344 186.402344 405.121094 186.621094 C 405.214844 186.835938 405.261719 187.066406 405.253906 187.316406 C 405.246094 187.386719 405.226562 187.457031 405.195312 187.519531 C 405.121094 187.667969 405.082031 187.824219 405.082031 187.988281 C 405.128906 193.257812 404.980469 198.699219 404.644531 204.3125 C 404.378906 208.675781 404.265625 212.828125 404.300781 216.773438 C 404.625 254.082031 404.304688 291.257812 404.972656 328.488281 C 405.363281 350.425781 405.273438 372.410156 405.285156 394.488281 C 405.292969 397.734375 405.597656 400.945312 405.667969 404.140625 C 405.671875 404.390625 405.773438 404.582031 405.972656 404.726562 C 406.054688 404.78125 406.136719 404.835938 406.210938 404.894531 C 406.574219 405.167969 406.527344 405.316406 406.074219 405.347656 C 405.664062 405.375 405.484375 405.597656 405.539062 406.015625 C 405.546875 406.113281 405.492188 406.210938 405.398438 406.242188 C 405.308594 406.28125 405.203125 406.25 405.144531 406.171875 C 404.820312 405.707031 404.375 405.480469 403.808594 405.480469 C 301.449219 405.480469 199.046875 405.480469 96.597656 405.480469 C 95.960938 405.484375 95.390625 405.679688 94.898438 406.078125 C 94.839844 406.117188 94.765625 406.128906 94.699219 406.097656 C 94.636719 406.070312 94.59375 406.003906 94.589844 405.933594 C 94.585938 405.589844 94.414062 405.421875 94.082031 405.433594 C 93.71875 405.445312 93.617188 405.289062 93.769531 404.96875 C 93.8125 404.871094 93.875 404.820312 93.960938 404.8125 C 94.285156 404.777344 94.453125 404.59375 94.460938 404.265625 C 94.671875 398.511719 94.816406 393.0625 94.898438 387.925781 C 95.441406 352.226562 95.703125 312.617188 95.679688 269.109375 C 95.671875 265.71875 95.257812 262.265625 95.238281 258.980469 C 95.136719 239.078125 94.996094 219.167969 94.824219 199.265625 C 94.824219 198.9375 94.824219 198.613281 94.824219 198.292969 C 94.847656 177.402344 94.769531 157.242188 94.589844 137.816406 C 94.578125 136.4375 93.949219 135.488281 92.699219 134.964844 C 92.152344 134.742188 91.695312 134.414062 91.316406 133.980469 C 91.117188 133.753906 90.84375 133.605469 90.542969 133.558594 C 89.960938 133.46875 89.441406 133.246094 88.980469 132.898438 C 88.789062 132.75 88.570312 132.6875 88.328125 132.707031 C 87.65625 132.761719 87.050781 132.570312 86.503906 132.132812 C 86.226562 131.914062 86.1875 131.652344 86.390625 131.355469 L 86.519531 131.160156 C 86.566406 131.082031 86.65625 131.035156 86.746094 131.03125 C 86.84375 131.027344 86.929688 131.074219 86.984375 131.144531 C 87.292969 131.558594 87.71875 131.703125 88.253906 131.574219 C 88.539062 131.507812 88.796875 131.566406 89.015625 131.757812 C 89.535156 132.203125 90.085938 132.320312 90.667969 132.109375 Z M 90.667969 132.109375 "/>
<path style=" stroke:none;fill-rule:nonzero;fill:rgb(38.039216%,43.921569%,47.45098%);fill-opacity:1;" d="M 0.972656 94.847656 L 0.972656 1.320312 C 10.070312 1.171875 16.984375 1.105469 21.722656 1.132812 C 46.070312 1.28125 69.378906 1.414062 91.652344 1.535156 C 92.878906 1.542969 93.867188 2.539062 93.863281 3.765625 C 93.816406 34.039062 93.832031 64.273438 93.929688 94.464844 C 93.929688 94.683594 93.820312 94.792969 93.605469 94.792969 Z M 0.972656 94.847656 "/>
<path style=" stroke:none;fill-rule:nonzero;fill:rgb(38.039216%,43.921569%,47.45098%);fill-opacity:1;" d="M 497 1.71875 C 497.984375 1.867188 498.484375 2.460938 498.484375 3.492188 C 498.519531 32.390625 498.535156 61.265625 498.539062 90.113281 C 498.539062 91.546875 498.664062 93.066406 498.84375 94.464844 C 498.878906 94.714844 498.769531 94.839844 498.515625 94.839844 C 468.121094 94.839844 438.460938 94.800781 409.53125 94.730469 C 408.445312 94.730469 407.386719 94.710938 406.347656 94.675781 C 406.082031 94.664062 405.867188 94.453125 405.84375 94.1875 C 405.71875 92.695312 405.652344 91.191406 405.652344 89.667969 C 405.667969 58.410156 405.652344 29.035156 405.609375 1.546875 C 405.609375 1.320312 405.722656 1.214844 405.945312 1.230469 C 409.632812 1.527344 413.359375 1.132812 417.066406 1.140625 C 441.613281 1.21875 467.4375 1.347656 494.550781 1.527344 C 495.40625 1.53125 496.21875 1.597656 497 1.71875 Z M 497 1.71875 "/>
<path style=" stroke:none;fill-rule:nonzero;fill:rgb(38.039216%,43.921569%,47.45098%);fill-opacity:1;" d="M 93.175781 498.875 L 0.972656 498.875 L 0.972656 406.464844 C 1.121094 406.46875 1.199219 406.355469 1.210938 406.121094 C 1.21875 405.914062 1.324219 405.785156 1.53125 405.730469 C 1.777344 405.667969 2.019531 405.722656 2.25 405.902344 C 2.410156 406.019531 2.589844 406.082031 2.789062 406.082031 L 91.960938 406.347656 C 93.015625 406.351562 93.871094 407.207031 93.871094 408.265625 C 93.839844 437.308594 93.84375 465.917969 93.878906 494.089844 C 93.878906 494.347656 93.929688 495.152344 94.035156 496.507812 C 94.148438 497.953125 93.863281 498.742188 93.175781 498.875 Z M 93.175781 498.875 "/>
<path style=" stroke:none;fill-rule:nonzero;fill:rgb(38.039216%,43.921569%,47.45098%);fill-opacity:1;" d="M 499.027344 406.703125 L 499.027344 498.875 L 407.023438 498.875 L 406.167969 498.601562 C 405.960938 498.539062 405.871094 498.398438 405.902344 498.179688 C 405.996094 497.5 406.042969 496.847656 406.050781 496.222656 C 406.273438 467.546875 406.308594 438.230469 406.164062 408.28125 C 406.160156 407.765625 406.355469 407.277344 406.71875 406.914062 C 407.078125 406.546875 407.570312 406.34375 408.082031 406.34375 L 497.503906 406.105469 C 497.695312 406.105469 497.871094 406.0625 498.035156 405.96875 C 498.160156 405.90625 498.292969 405.871094 498.4375 405.859375 C 498.648438 405.847656 498.765625 405.945312 498.789062 406.160156 C 498.804688 406.375 498.882812 406.554688 499.027344 406.703125 Z M 499.027344 406.703125 "/>
</g>
</svg>
