<?xml version="1.0" encoding="UTF-8"?>
<svg xmlns="http://www.w3.org/2000/svg" xmlns:xlink="http://www.w3.org/1999/xlink" width="500px" height="500px" viewBox="0 0 500 564" version="1.1">
<g id="surface1">
<path style=" stroke:none;fill-rule:nonzero;fill:rgb(98.039216%,89.803922%,0.392157%);fill-opacity:1;" d="M 171.035156 393.09375 C 141.078125 364.902344 123.453125 326.140625 123.453125 282.097656 C 123.453125 237.855469 141.078125 199.09375 169.273438 170.902344 C 193.945312 146.234375 193.945312 107.472656 169.273438 82.808594 C 144.601562 58.140625 105.828125 58.140625 81.15625 82.808594 C 31.8125 133.902344 0.0859375 204.375 0.0859375 282.097656 C 0.0859375 359.621094 31.8125 430.09375 82.917969 481.1875 C 107.589844 505.855469 146.367188 505.855469 171.035156 481.1875 C 193.945312 456.523438 193.945312 417.761719 171.035156 393.09375 Z M 171.035156 393.09375 "/>
<path style=" stroke:none;fill-rule:nonzero;fill:rgb(30.980392%,70.980392%,88.235294%);fill-opacity:1;" d="M 171.035156 170.902344 C 199.234375 140.953125 238.007812 123.332031 282.261719 123.332031 C 326.324219 123.332031 365.09375 140.953125 393.289062 169.140625 C 417.964844 193.804688 456.738281 193.804688 481.410156 169.140625 C 506.082031 144.472656 506.082031 105.710938 481.410156 81.042969 C 430.300781 31.710938 359.804688 0 282.261719 0 C 204.523438 0 134.027344 31.710938 82.917969 82.808594 C 58.242188 107.472656 58.242188 146.234375 82.917969 170.902344 C 107.589844 193.804688 146.367188 193.804688 171.035156 170.902344 Z M 171.035156 170.902344 "/>
<path style=" stroke:none;fill-rule:nonzero;fill:rgb(94.117647%,34.117647%,31.764706%);fill-opacity:1;" d="M 393.289062 393.09375 C 365.09375 423.042969 326.324219 440.664062 282.261719 440.664062 C 238.007812 440.664062 199.234375 423.042969 171.035156 394.855469 C 146.367188 370.191406 107.589844 370.191406 82.917969 394.855469 C 58.242188 419.523438 58.242188 458.285156 82.917969 482.945312 C 134.027344 532.285156 204.523438 563.996094 282.261719 563.996094 C 359.804688 563.996094 430.300781 532.285156 481.410156 481.1875 C 506.082031 456.523438 506.082031 417.761719 481.410156 393.09375 C 456.738281 370.191406 417.964844 370.191406 393.289062 393.09375 Z M 393.289062 393.09375 "/>
<path style=" stroke:none;fill-rule:nonzero;fill:rgb(2.352941%,50.588235%,71.372549%);fill-opacity:1;" d="M 126.980469 188.523438 C 92.90625 188.523438 65.292969 161.113281 65.292969 126.855469 C 65.292969 92.792969 92.90625 65.191406 126.980469 65.191406 C 161.242188 65.191406 188.660156 92.792969 188.660156 126.855469 C 188.660156 161.113281 161.242188 188.523438 126.980469 188.523438 Z M 126.980469 188.523438 "/>
<path style=" stroke:none;fill-rule:nonzero;fill:rgb(80.392157%,27.843137%,22.352941%);fill-opacity:1;" d="M 126.980469 498.804688 C 92.90625 498.804688 65.292969 471.203125 65.292969 437.140625 C 65.292969 403.078125 92.90625 375.472656 126.980469 375.472656 C 161.242188 375.472656 188.660156 403.078125 188.660156 437.140625 C 188.660156 471.203125 161.242188 498.804688 126.980469 498.804688 Z M 126.980469 498.804688 "/>
</g>
</svg>
