<svg version="1.2" xmlns="http://www.w3.org/2000/svg" viewBox="0 0 333 501" width="500" height="500">
	<title>figma-svg</title>
	<style>
		.s0 { fill: #0acf83 } 
		.s1 { fill: #a259ff } 
		.s2 { fill: #f24e1e } 
		.s3 { fill: #ff7262 } 
		.s4 { fill: #1abcfe } 
	</style>
	<g id="surface1">
		<path id="Layer" class="s0" d="m83.3 500c45.9 0 83.2-37.3 83.2-83.2v-83.1h-83.2c-46 0-83.3 37.2-83.3 83.1 0 45.9 37.3 83.2 83.3 83.2z"/>
		<path id="Layer" class="s1" d="m0 250.5c0-45.9 37.3-83.2 83.3-83.2h83.2v166.4h-83.2c-46 0-83.3-37.3-83.3-83.2z"/>
		<path id="Layer" class="s2" d="m0 84.2c0-45.9 37.3-83.2 83.3-83.2h83.2v166.3h-83.2c-46 0-83.3-37.2-83.3-83.1z"/>
		<path id="Layer" class="s3" d="m166.5 1h83.2c46 0 83.3 37.3 83.3 83.2 0 45.9-37.3 83.1-83.3 83.1h-83.2z"/>
		<path id="Layer" class="s4" d="m333 250.5c0 45.9-37.3 83.2-83.3 83.2-45.9 0-83.2-37.3-83.2-83.2 0-45.9 37.3-83.2 83.2-83.2 46 0 83.3 37.3 83.3 83.2z"/>
	</g>
</svg>