<?xml version="1.0" encoding="UTF-8"?>
<svg xmlns="http://www.w3.org/2000/svg" xmlns:xlink="http://www.w3.org/1999/xlink" width="500px" height="500px" viewBox="0 0 500 375" version="1.1">
<g id="surface1">
<path style=" stroke:none;fill-rule:nonzero;fill:rgb(94.117647%,38.431373%,57.254902%);fill-opacity:1;" d="M 430.300781 215.5 C 412.828125 215.59375 397.6875 219.785156 385.007812 226.039062 C 380.375 216.785156 375.667969 208.644531 374.882812 202.589844 C 373.964844 195.527344 372.894531 191.304688 374.011719 182.890625 C 375.121094 174.472656 380 162.550781 379.929688 161.652344 C 379.863281 160.757812 378.835938 156.476562 368.757812 156.398438 C 358.679688 156.332031 350.058594 158.339844 349.042969 160.996094 C 348.03125 163.652344 346.089844 169.636719 344.882812 175.882812 C 343.125 185.011719 324.761719 217.59375 314.339844 234.625 C 310.929688 227.96875 308.035156 222.109375 307.433594 217.476562 C 306.511719 210.414062 305.441406 206.191406 306.558594 197.777344 C 307.667969 189.363281 312.546875 177.4375 312.476562 176.539062 C 312.410156 175.648438 311.386719 171.363281 301.304688 171.285156 C 291.226562 171.21875 282.601562 173.226562 281.589844 175.882812 C 280.578125 178.542969 279.488281 184.753906 277.433594 190.769531 C 275.363281 196.777344 250.964844 251.113281 244.570312 265.203125 C 241.308594 272.382812 238.476562 278.148438 236.480469 282.078125 C 236.46875 282.066406 236.46875 282.058594 236.46875 282.058594 C 236.46875 282.058594 236.34375 282.316406 236.136719 282.761719 C 234.417969 286.109375 233.410156 287.964844 233.410156 287.964844 C 233.410156 287.964844 233.421875 287.984375 233.441406 288.03125 C 232.082031 290.496094 230.625 292.773438 229.910156 292.773438 C 229.410156 292.773438 228.398438 286.226562 230.125 277.230469 C 233.761719 258.378906 242.476562 228.992188 242.398438 227.96875 C 242.351562 227.449219 244.023438 222.324219 236.703125 219.648438 C 229.59375 217.046875 227.058594 221.386719 226.410156 221.394531 C 225.785156 221.40625 225.320312 222.929688 225.320312 222.929688 C 225.320312 222.929688 233.238281 189.871094 210.203125 189.871094 C 195.796875 189.871094 175.84375 205.625 166.015625 219.898438 C 159.808594 223.28125 146.527344 230.527344 132.445312 238.257812 C 127.035156 241.234375 121.511719 244.265625 116.277344 247.152344 C 115.921875 246.753906 115.558594 246.367188 115.195312 245.972656 C 87.25 216.183594 35.617188 195.121094 37.800781 155.070312 C 38.59375 140.511719 43.664062 102.175781 137.035156 55.6875 C 213.523438 17.601562 274.761719 28.082031 285.339844 51.304688 C 300.453125 84.492188 252.613281 146.167969 173.183594 155.070312 C 142.921875 158.464844 126.980469 146.734375 123.015625 142.375 C 118.84375 137.777344 118.214844 137.570312 116.660156 138.433594 C 114.125 139.84375 115.726562 143.898438 116.660156 146.3125 C 119.035156 152.480469 128.765625 163.417969 145.351562 168.863281 C 159.953125 173.660156 195.488281 176.277344 238.457031 159.664062 C 286.589844 141.070312 324.167969 89.308594 313.125 46.054688 C 301.898438 2.066406 228.898438 -12.398438 159.808594 12.128906 C 118.636719 26.730469 74.125 49.644531 42.117188 79.558594 C 4.058594 115.121094 -2.007812 146.089844 0.492188 159.019531 C 9.378906 204.988281 72.777344 234.921875 98.160156 257.097656 C 96.910156 257.789062 95.726562 258.4375 94.664062 259.027344 C 81.933594 265.320312 33.605469 290.59375 21.511719 317.292969 C 7.800781 347.578125 23.699219 369.3125 34.21875 372.242188 C 66.820312 381.304688 100.277344 364.996094 118.261719 338.199219 C 136.238281 311.410156 134.046875 276.515625 125.796875 260.597656 C 125.695312 260.402344 125.582031 260.210938 125.476562 260.003906 C 128.765625 258.0625 132.113281 256.089844 135.433594 254.132812 C 141.910156 250.328125 148.273438 246.785156 153.785156 243.789062 C 150.695312 252.238281 148.433594 262.375 147.261719 277.015625 C 145.875 294.203125 152.933594 316.429688 162.160156 325.171875 C 166.230469 329.023438 171.117188 329.117188 174.203125 329.117188 C 184.945312 329.117188 189.84375 320.1875 195.238281 309.628906 C 201.851562 296.683594 207.726562 281.601562 207.726562 281.601562 C 207.726562 281.601562 200.363281 322.324219 220.433594 322.324219 C 227.75 322.324219 235.101562 312.839844 238.386719 308.015625 C 238.398438 308.074219 238.398438 308.09375 238.398438 308.09375 C 238.398438 308.09375 238.589844 307.777344 238.96875 307.148438 C 239.726562 305.996094 240.160156 305.253906 240.160156 305.253906 C 240.160156 305.253906 240.171875 305.175781 240.191406 305.039062 C 243.136719 299.941406 249.660156 288.3125 259.429688 269.132812 C 272.066406 244.355469 284.183594 213.308594 284.183594 213.308594 C 284.183594 213.308594 285.304688 220.894531 289 233.453125 C 291.167969 240.835938 295.785156 249.003906 299.429688 256.835938 C 296.5 260.898438 294.703125 263.226562 294.703125 263.226562 C 294.703125 263.226562 294.714844 263.273438 294.746094 263.351562 C 292.410156 266.464844 289.785156 269.816406 287.03125 273.085938 C 277.058594 284.953125 265.179688 298.507812 263.589844 302.417969 C 261.714844 307.027344 262.160156 310.410156 265.785156 313.148438 C 268.429688 315.132812 273.136719 315.453125 278.054688 315.121094 C 287.023438 314.523438 293.316406 312.292969 296.433594 310.941406 C 301.28125 309.230469 306.933594 306.539062 312.226562 302.640625 C 322.007812 295.457031 327.90625 285.179688 327.339844 271.554688 C 327.019531 264.046875 324.636719 256.609375 321.601562 249.59375 C 322.488281 248.320312 323.375 247.027344 324.273438 245.730469 C 339.691406 223.203125 351.660156 198.449219 351.660156 198.449219 C 351.660156 198.449219 352.78125 206.03125 356.472656 218.589844 C 358.339844 224.9375 362.035156 231.878906 365.351562 238.667969 C 350.851562 250.441406 341.863281 264.125 338.738281 273.097656 C 332.964844 289.695312 337.484375 297.214844 345.960938 298.929688 C 349.804688 299.703125 355.238281 297.945312 359.316406 296.21875 C 364.398438 294.539062 370.5 291.730469 376.203125 287.542969 C 385.988281 280.351562 395.394531 270.292969 394.824219 256.679688 C 394.566406 250.480469 392.882812 244.324219 390.601562 238.417969 C 402.894531 233.296875 418.804688 230.457031 439.078125 232.816406 C 482.566406 237.894531 491.089844 265.023438 489.460938 276.378906 C 487.824219 287.734375 478.710938 293.980469 475.65625 295.863281 C 472.613281 297.746094 471.679688 298.410156 471.929688 299.804688 C 472.304688 301.835938 473.714844 301.769531 476.316406 301.328125 C 479.894531 300.726562 499.144531 292.097656 499.972656 271.132812 C 501.007812 244.496094 475.496094 215.265625 430.300781 215.5 Z M 95.117188 328.421875 C 80.707031 344.125 60.59375 350.054688 51.957031 345.054688 C 42.640625 339.660156 46.332031 316.542969 64 299.871094 C 74.773438 289.722656 88.683594 280.367188 97.914062 274.605469 C 100.015625 273.347656 103.09375 271.496094 106.84375 269.246094 C 107.46875 268.894531 107.820312 268.699219 107.820312 268.699219 L 107.808594 268.679688 C 108.535156 268.246094 109.273438 267.808594 110.035156 267.339844 C 116.480469 291.0625 110.242188 311.945312 95.117188 328.421875 Z M 200.058594 257.144531 C 195.042969 269.363281 184.542969 300.632812 178.148438 298.953125 C 172.660156 297.511719 169.316406 273.746094 177.058594 250.355469 C 180.945312 238.578125 189.265625 224.507812 194.148438 219.042969 C 202.011719 210.257812 210.671875 207.382812 212.773438 210.949219 C 215.445312 215.488281 203.203125 249.476562 200.058594 257.144531 Z M 286.75 298.476562 C 284.625 299.589844 282.671875 300.28125 281.773438 299.75 C 281.101562 299.347656 282.644531 297.886719 282.644531 297.886719 C 282.644531 297.886719 293.488281 286.226562 297.761719 280.921875 C 300.25 277.832031 303.125 274.164062 306.261719 270.078125 C 306.285156 270.484375 306.296875 270.890625 306.296875 271.292969 C 306.269531 285.261719 292.769531 294.683594 286.75 298.476562 Z M 353.53125 283.261719 C 351.941406 282.136719 352.214844 278.488281 357.429688 267.125 C 359.476562 262.664062 364.15625 255.15625 372.269531 247.980469 C 373.214844 250.933594 373.78125 253.757812 373.769531 256.390625 C 373.667969 273.96875 361.121094 280.535156 353.53125 283.261719 Z M 353.53125 283.261719 "/>
</g>
</svg>
