<?xml version="1.0" encoding="UTF-8"?>
<svg xmlns="http://www.w3.org/2000/svg" xmlns:xlink="http://www.w3.org/1999/xlink" width="500px" height="355px" viewBox="0 0 540 355" version="1.1">
<defs>
<linearGradient id="linear0" gradientUnits="userSpaceOnUse" x1="1070.963989" y1="789.984009" x2="357.595001" y2="-473.376007" gradientTransform="matrix(0.279438,0.00105032,-0.00105032,0.279438,238.817429,184.661972)">
<stop offset="0.53" style="stop-color:rgb(91.764706%,57.254902%,60.392157%);stop-opacity:1;"/>
<stop offset="0.62" style="stop-color:rgb(55.686275%,38.431373%,47.45098%);stop-opacity:1;"/>
<stop offset="0.69" style="stop-color:rgb(19.215686%,19.607843%,34.901961%);stop-opacity:1;"/>
</linearGradient>
<linearGradient id="linear1" gradientUnits="userSpaceOnUse" x1="578.44397" y1="164.212997" x2="506.209015" y2="723.531006" gradientTransform="matrix(0.279438,0.00105032,-0.00105032,0.279438,238.817429,184.661972)">
<stop offset="0.06" style="stop-color:rgb(91.764706%,57.254902%,60.392157%);stop-opacity:0;"/>
<stop offset="0.2" style="stop-color:rgb(55.686275%,38.431373%,47.45098%);stop-opacity:0.501961;"/>
<stop offset="0.27" style="stop-color:rgb(19.215686%,19.607843%,34.901961%);stop-opacity:1;"/>
</linearGradient>
<linearGradient id="linear2" gradientUnits="userSpaceOnUse" x1="520.070007" y1="-646.146973" x2="388.070007" y2="663.255981" gradientTransform="matrix(0.279438,0.00105032,-0.00105032,0.279438,241.756353,184.281509)">
<stop offset="0.14" style="stop-color:rgb(58.039216%,74.117647%,92.941176%);stop-opacity:1;"/>
<stop offset="0.53" style="stop-color:rgb(34.509804%,61.960784%,74.117647%);stop-opacity:1;"/>
<stop offset="0.97" style="stop-color:rgb(10.980392%,49.411765%,55.686275%);stop-opacity:1;"/>
</linearGradient>
<linearGradient id="linear3" gradientUnits="userSpaceOnUse" x1="487.070007" y1="91.852997" x2="154.764008" y2="436.527008" gradientTransform="matrix(0.279438,0.00105032,-0.00105032,0.279438,248.458664,185.424469)">
<stop offset="0.03" style="stop-color:rgb(42.352941%,61.960784%,84.705882%);stop-opacity:0;"/>
<stop offset="0.23" style="stop-color:rgb(30.980392%,40.784314%,59.607843%);stop-opacity:0.501961;"/>
<stop offset="0.38" style="stop-color:rgb(19.215686%,19.607843%,34.901961%);stop-opacity:1;"/>
</linearGradient>
<linearGradient id="linear4" gradientUnits="userSpaceOnUse" x1="-75.857002" y1="238.272003" x2="235.888" y2="-605.604004" gradientTransform="matrix(0.27938,-0.00580024,0.00580024,0.27938,81.576438,269.742089)">
<stop offset="0.4" style="stop-color:rgb(91.764706%,57.254902%,60.392157%);stop-opacity:1;"/>
<stop offset="0.54" style="stop-color:rgb(55.686275%,38.431373%,47.45098%);stop-opacity:1;"/>
<stop offset="0.65" style="stop-color:rgb(19.215686%,19.607843%,34.901961%);stop-opacity:1;"/>
</linearGradient>
<linearGradient id="linear5" gradientUnits="userSpaceOnUse" x1="67.502998" y1="-42.415001" x2="282.582001" y2="256.164001" gradientTransform="matrix(0.27938,-0.00580024,0.00580024,0.27938,107.70097,264.972853)">
<stop offset="0" style="stop-color:rgb(91.764706%,57.254902%,60.392157%);stop-opacity:0;"/>
<stop offset="0.19" style="stop-color:rgb(55.686275%,38.431373%,47.45098%);stop-opacity:0.501961;"/>
<stop offset="0.25" style="stop-color:rgb(19.215686%,19.607843%,34.901961%);stop-opacity:1;"/>
</linearGradient>
<linearGradient id="linear6" gradientUnits="userSpaceOnUse" x1="-0.474" y1="-567.710999" x2="-0.474" y2="706.080994" gradientTransform="matrix(0.27938,-0.00580024,0.00580024,0.27938,126.784172,170.790329)">
<stop offset="0.14" style="stop-color:rgb(58.039216%,74.117647%,92.941176%);stop-opacity:1;"/>
<stop offset="0.53" style="stop-color:rgb(34.509804%,61.960784%,74.117647%);stop-opacity:1;"/>
<stop offset="0.97" style="stop-color:rgb(10.980392%,49.411765%,55.686275%);stop-opacity:1;"/>
</linearGradient>
<linearGradient id="linear7" gradientUnits="userSpaceOnUse" x1="459.768005" y1="-492.329987" x2="455.25" y2="605.544006" gradientTransform="matrix(0.2794,-0.00472003,0.00472003,0.2794,126.37635,170.809204)">
<stop offset="0.14" style="stop-color:rgb(58.039216%,74.117647%,92.941176%);stop-opacity:1;"/>
<stop offset="0.53" style="stop-color:rgb(34.509804%,61.960784%,74.117647%);stop-opacity:1;"/>
<stop offset="0.97" style="stop-color:rgb(10.980392%,49.411765%,55.686275%);stop-opacity:1;"/>
</linearGradient>
<filter id="alpha" filterUnits="objectBoundingBox" x="0%" y="0%" width="100%" height="100%">
  <feColorMatrix type="matrix" in="SourceGraphic" values="0 0 0 0 1 0 0 0 0 1 0 0 0 0 1 0 0 0 1 0"/>
</filter>
<mask id="mask0">
  <g filter="url(#alpha)">
<rect x="0" y="0" width="540" height="355" style="fill:rgb(0%,0%,0%);fill-opacity:0.501961;stroke:none;"/>
  </g>
</mask>
<clipPath id="clip1">
  <rect x="0" y="0" width="540" height="355"/>
</clipPath>
<g id="surface5" clip-path="url(#clip1)">
<path style=" stroke:none;fill-rule:nonzero;fill:rgb(91.764706%,57.254902%,60.392157%);fill-opacity:1;" d="M 368.53125 303.742188 C 368.53125 319.378906 355.855469 332.054688 340.21875 332.054688 C 324.582031 332.054688 311.90625 319.378906 311.90625 303.742188 C 311.90625 288.105469 324.582031 275.429688 340.21875 275.429688 C 355.855469 275.429688 368.53125 288.105469 368.53125 303.742188 Z M 368.53125 303.742188 "/>
</g>
<linearGradient id="linear8" gradientUnits="userSpaceOnUse" x1="40.192001" y1="578.864014" x2="-20.674999" y2="-279.041992" gradientTransform="matrix(0.27944,0,0,0.27944,244.125311,335.47684)">
<stop offset="0.51" style="stop-color:rgb(19.215686%,19.607843%,34.901961%);stop-opacity:1;"/>
<stop offset="0.57" style="stop-color:rgb(33.72549%,42.352941%,61.960784%);stop-opacity:1;"/>
<stop offset="0.62" style="stop-color:rgb(48.627451%,65.098039%,89.019608%);stop-opacity:1;"/>
<stop offset="0.8" style="stop-color:rgb(67.45098%,77.647059%,87.843137%);stop-opacity:1;"/>
<stop offset="0.98" style="stop-color:rgb(85.882353%,90.588235%,87.058824%);stop-opacity:1;"/>
</linearGradient>
<linearGradient id="linear9" gradientUnits="userSpaceOnUse" x1="-355.225006" y1="453.705994" x2="385.226013" y2="-528.244995" gradientTransform="matrix(0.27944,0,0,0.27944,241.167998,256.718904)">
<stop offset="0.01" style="stop-color:rgb(48.627451%,65.098039%,89.019608%);stop-opacity:1;"/>
<stop offset="0.21" style="stop-color:rgb(67.45098%,77.647059%,87.843137%);stop-opacity:1;"/>
<stop offset="0.84" style="stop-color:rgb(85.882353%,90.588235%,87.058824%);stop-opacity:1;"/>
</linearGradient>
<linearGradient id="linear10" gradientUnits="userSpaceOnUse" x1="23.174" y1="-186.154007" x2="-18.948" y2="183.751999" gradientTransform="matrix(0.27944,0,0,0.27944,288.862533,229.281799)">
<stop offset="0.01" style="stop-color:rgb(100%,97.647059%,91.372549%);stop-opacity:1;"/>
<stop offset="0.42" style="stop-color:rgb(98.823529%,77.254902%,81.960784%);stop-opacity:1;"/>
<stop offset="0.89" style="stop-color:rgb(97.647059%,56.862745%,72.54902%);stop-opacity:1;"/>
</linearGradient>
<linearGradient id="linear11" gradientUnits="userSpaceOnUse" x1="34.412998" y1="21.414" x2="203.069" y2="154.003006" gradientTransform="matrix(0.2794,-0.00472003,0.00472003,0.2794,299.399609,87.926862)">
<stop offset="0.03" style="stop-color:rgb(95.686275%,82.352941%,25.098039%);stop-opacity:1;"/>
<stop offset="0.68" style="stop-color:rgb(97.647059%,58.431373%,23.921569%);stop-opacity:1;"/>
<stop offset="0.86" style="stop-color:rgb(100%,34.901961%,23.137255%);stop-opacity:1;"/>
</linearGradient>
<linearGradient id="linear12" gradientUnits="userSpaceOnUse" x1="41.23" y1="-7.829" x2="171.641006" y2="189.358994" gradientTransform="matrix(0.2794,-0.00472003,0.00472003,0.2794,287.174849,113.418494)">
<stop offset="0.03" style="stop-color:rgb(95.686275%,82.352941%,25.098039%);stop-opacity:1;"/>
<stop offset="0.68" style="stop-color:rgb(97.647059%,58.431373%,23.921569%);stop-opacity:1;"/>
<stop offset="0.86" style="stop-color:rgb(100%,34.901961%,23.137255%);stop-opacity:1;"/>
</linearGradient>
<linearGradient id="linear13" gradientUnits="userSpaceOnUse" x1="23.636999" y1="75.792999" x2="-10.251" y2="-60.533001" gradientTransform="matrix(0.2794,-0.00472003,0.00472003,0.2794,240.836939,27.795903)">
<stop offset="0.29" style="stop-color:rgb(100%,34.901961%,23.137255%);stop-opacity:1;"/>
<stop offset="0.37" style="stop-color:rgb(97.647059%,58.431373%,23.921569%);stop-opacity:1;"/>
<stop offset="0.88" style="stop-color:rgb(95.686275%,82.352941%,25.098039%);stop-opacity:1;"/>
</linearGradient>
<linearGradient id="linear14" gradientUnits="userSpaceOnUse" x1="132.544998" y1="-10.985" x2="-288.552002" y2="35.834999" gradientTransform="matrix(0.2794,-0.00472003,0.00472003,0.2794,207.18962,82.825995)">
<stop offset="0.1" style="stop-color:rgb(19.215686%,19.607843%,34.901961%);stop-opacity:1;"/>
<stop offset="0.14" style="stop-color:rgb(30.980392%,40.784314%,59.607843%);stop-opacity:1;"/>
<stop offset="0.28" style="stop-color:rgb(42.352941%,61.960784%,84.705882%);stop-opacity:1;"/>
</linearGradient>
<linearGradient id="linear15" gradientUnits="userSpaceOnUse" x1="-45.375999" y1="-0.295" x2="263.23999" y2="-0.295" gradientTransform="matrix(0.2794,-0.00472003,0.00472003,0.2794,293.422645,77.420734)">
<stop offset="0" style="stop-color:rgb(42.352941%,61.960784%,84.705882%);stop-opacity:1;"/>
<stop offset="0.26" style="stop-color:rgb(63.921569%,76.470588%,85.882353%);stop-opacity:1;"/>
<stop offset="0.84" style="stop-color:rgb(85.882353%,90.588235%,87.058824%);stop-opacity:1;"/>
</linearGradient>
<linearGradient id="linear16" gradientUnits="userSpaceOnUse" x1="7.144" y1="3.599" x2="202.432999" y2="201.201996" gradientTransform="matrix(0.2794,-0.00472003,0.00472003,0.2794,274.726609,58.414417)">
<stop offset="0.03" style="stop-color:rgb(95.686275%,82.352941%,25.098039%);stop-opacity:1;"/>
<stop offset="0.34" style="stop-color:rgb(97.647059%,58.431373%,23.921569%);stop-opacity:1;"/>
<stop offset="0.44" style="stop-color:rgb(100%,34.901961%,23.137255%);stop-opacity:1;"/>
</linearGradient>
<linearGradient id="linear17" gradientUnits="userSpaceOnUse" x1="-13.122" y1="-17.23" x2="95.281998" y2="146.813004" gradientTransform="matrix(0.2794,-0.00472003,0.00472003,0.2794,221.219342,59.304368)">
<stop offset="0.03" style="stop-color:rgb(95.686275%,82.352941%,25.098039%);stop-opacity:1;"/>
<stop offset="0.34" style="stop-color:rgb(97.647059%,58.431373%,23.921569%);stop-opacity:1;"/>
<stop offset="0.44" style="stop-color:rgb(100%,34.901961%,23.137255%);stop-opacity:1;"/>
</linearGradient>
<linearGradient id="linear18" gradientUnits="userSpaceOnUse" x1="-7.943" y1="0.934" x2="109.901001" y2="110.706001" gradientTransform="matrix(0.2794,-0.00472003,0.00472003,0.2794,233.622323,58.805858)">
<stop offset="0.03" style="stop-color:rgb(95.686275%,82.352941%,25.098039%);stop-opacity:1;"/>
<stop offset="0.33" style="stop-color:rgb(97.647059%,58.431373%,23.921569%);stop-opacity:1;"/>
<stop offset="0.46" style="stop-color:rgb(100%,34.901961%,23.137255%);stop-opacity:1;"/>
</linearGradient>
</defs>
<g id="surface1">
<path style=" stroke:none;fill-rule:nonzero;fill:rgb(19.215686%,19.607843%,34.901961%);fill-opacity:1;" d="M 476.117188 171.316406 C 482.96875 178.320312 461.421875 203.183594 431.03125 226.792969 C 400.636719 250.402344 371.496094 264.246094 367.027344 257.300781 C 362.558594 250.347656 372.519531 219.738281 402.914062 196.128906 C 433.304688 172.523438 470.335938 165.40625 476.117188 171.316406 Z M 476.117188 171.316406 "/>
<path style=" stroke:none;fill-rule:nonzero;fill:url(#linear0);" d="M 513.148438 325.957031 C 496.964844 343.574219 470.132812 346.03125 448.988281 324.917969 C 448.988281 324.917969 392.03125 265.738281 392.03125 265.738281 C 392.03125 265.738281 359.394531 233.335938 359.394531 233.335938 C 360.28125 199.792969 416.046875 157.667969 450.410156 165.722656 C 464.1875 180.453125 481.648438 202.59375 488.535156 211.785156 C 504.339844 232.875 520.863281 259.191406 523.734375 280.105469 C 525.671875 294.234375 525.285156 312.75 513.148438 325.957031 Z M 513.148438 325.957031 "/>
<path style=" stroke:none;fill-rule:nonzero;fill:url(#linear1);" d="M 473.597656 260.511719 C 473.597656 260.511719 397.902344 271.371094 397.902344 271.371094 C 397.902344 271.371094 370.496094 244.238281 370.496094 244.238281 C 370.496094 244.238281 384.710938 241.425781 404.71875 243.398438 C 430.964844 245.980469 473.597656 260.511719 473.597656 260.511719 Z M 473.597656 260.511719 "/>
<path style=" stroke:none;fill-rule:nonzero;fill:url(#linear2);" d="M 317.992188 163.773438 C 294.933594 114.179688 342.925781 58.75 397.976562 101.679688 C 430.410156 126.976562 457.023438 147.902344 476.003906 171.679688 C 463.25 163.714844 364.09375 225.9375 366.964844 257.046875 C 349.390625 234.402344 342.746094 217.011719 317.992188 163.773438 Z M 317.992188 163.773438 "/>
<path style=" stroke:none;fill-rule:nonzero;fill:url(#linear3);" d="M 351.199219 234.242188 C 351.199219 234.242188 336.445312 209.425781 345.292969 203.339844 C 354.140625 197.257812 402.757812 198.835938 400.070312 211.4375 C 386.742188 222.527344 366.695312 240.617188 366.910156 257.308594 C 363.160156 251.78125 351.199219 234.242188 351.199219 234.242188 Z M 351.199219 234.242188 "/>
<path style=" stroke:none;fill-rule:nonzero;fill:rgb(19.215686%,19.607843%,34.901961%);fill-opacity:1;" d="M 156.34375 246.636719 C 134.425781 260.125 31.488281 235.988281 38.574219 214.382812 C 46.878906 203.175781 65.324219 186.234375 111.542969 197.304688 C 143.5625 204.972656 159.753906 231.367188 156.34375 246.636719 Z M 156.34375 246.636719 "/>
<path style=" stroke:none;fill-rule:nonzero;fill:url(#linear4);" d="M 58.359375 197.246094 C 58.359375 197.246094 22.355469 252.039062 15.574219 293.707031 C 13.945312 303.722656 14.9375 317.316406 22.664062 326.992188 C 36.984375 344.929688 58 346.917969 71.21875 342.371094 C 93.976562 334.542969 113.027344 302.980469 125.03125 284.085938 C 137.039062 265.1875 159.421875 232.179688 159.421875 232.179688 C 140.199219 201.726562 86.523438 187.609375 58.359375 197.246094 Z M 58.359375 197.246094 "/>
<path style=" stroke:none;fill-rule:nonzero;fill:url(#linear5);" d="M 67.257812 263 C 67.257812 263 144.53125 273.769531 144.53125 273.769531 C 144.53125 273.769531 152.503906 261.5625 152.503906 261.5625 C 152.503906 261.5625 142.492188 258.355469 125.546875 256.3125 C 105.761719 253.933594 67.257812 263 67.257812 263 Z M 67.257812 263 "/>
<path style=" stroke:none;fill-rule:nonzero;fill:url(#linear6);" d="M 156.007812 246.742188 C 151.84375 230.695312 63.878906 197.511719 38.671875 213.921875 C 50.890625 187.71875 85.914062 128.425781 126.699219 101.191406 C 173.589844 69.878906 220.417969 117.679688 200.6875 159.988281 C 181.558594 200.992188 161.605469 239.855469 156.007812 246.742188 Z M 156.007812 246.742188 "/>
<path style=" stroke:none;fill-rule:nonzero;fill:url(#linear7);" d="M 365.011719 331.09375 C 354.507812 329.886719 188.304688 334.195312 159.136719 333.320312 C 157.273438 317.714844 159.75 256.613281 157.066406 231.207031 C 155.273438 214.234375 152.964844 202.855469 154.636719 189.300781 C 156.101562 177.441406 161.066406 144.582031 166.855469 125.015625 C 172.640625 105.449219 179.253906 94.3125 212.992188 112.171875 C 245.917969 129.601562 295.613281 119.210938 308.757812 109.003906 C 333.941406 89.449219 363.628906 70.695312 394.886719 102.371094 C 424.660156 132.542969 402.453125 163.554688 379.960938 184.054688 C 371.121094 192.113281 364.609375 218.621094 364.398438 222.777344 C 363.121094 247.730469 364.535156 316.714844 365.011719 331.09375 Z M 365.011719 331.09375 "/>
<path style=" stroke:none;fill-rule:nonzero;fill:rgb(91.764706%,57.254902%,60.392157%);fill-opacity:1;" d="M 478.730469 254.421875 C 463.929688 254.960938 443.132812 258.460938 413.1875 262.953125 C 382.820312 267.507812 357.097656 271.867188 334.320312 276.046875 C 322.984375 278.125 312.375 288.527344 311.898438 302.976562 C 311.566406 312.980469 318.136719 326.601562 330.929688 330.492188 C 351.832031 336.851562 374.738281 346.945312 447.808594 346.320312 C 484.023438 346.011719 514.871094 336.027344 522.636719 308.585938 C 529.535156 284.207031 512.628906 253.183594 478.730469 254.421875 Z M 478.730469 254.421875 "/>
<use xlink:href="#surface5" mask="url(#mask0)"/>
<path style=" stroke:none;fill-rule:nonzero;fill:rgb(91.764706%,57.254902%,60.392157%);fill-opacity:1;" d="M 335.167969 275.890625 C 324.980469 277.644531 288.96875 284.019531 273.285156 291.53125 C 256.65625 299.496094 253.402344 306.253906 256.332031 311.765625 C 259.246094 317.25 270.433594 314.371094 277.328125 311.445312 C 284.222656 308.519531 333.699219 293.96875 337.703125 293.101562 C 342.949219 291.964844 348.800781 287.394531 348.238281 282.210938 C 347.769531 277.859375 343.515625 274.449219 335.167969 275.890625 Z M 335.167969 275.890625 "/>
<path style="fill:none;stroke-width:10;stroke-linecap:round;stroke-linejoin:round;stroke:rgb(19.215686%,19.607843%,34.901961%);stroke-opacity:1;stroke-miterlimit:4;" d="M -64.461656 15.300892 C -64.461656 15.300892 -29.626354 5.487738 -11.132332 0.916653 C 17.580231 -6.198583 64.465303 -15.298816 64.465303 -15.298816 " transform="matrix(0.27944,0,0,0.27944,300.4116,283.431351)"/>
<path style=" stroke:none;fill-rule:nonzero;fill:rgb(91.764706%,57.254902%,60.392157%);fill-opacity:1;" d="M 284.898438 303.667969 C 274.066406 314.5 262.277344 326.878906 268.089844 333.382812 C 272.449219 338.265625 281.902344 332.839844 286.769531 327.976562 C 291.632812 323.109375 298.015625 314.605469 302.4375 310.847656 C 311.507812 303.132812 324.988281 301.214844 336.550781 301.9375 C 340.230469 302.167969 344.679688 299.039062 344.679688 295.210938 C 344.679688 291.382812 341.105469 288.585938 335.167969 288.199219 C 320.988281 287.277344 295.730469 292.835938 284.898438 303.667969 Z M 284.898438 303.667969 "/>
<path style="fill:none;stroke-width:10;stroke-linecap:round;stroke-linejoin:round;stroke:rgb(19.215686%,19.607843%,34.901961%);stroke-opacity:1;stroke-miterlimit:4;" d="M 65.717613 -41.351574 C 65.717613 -41.351574 9.117238 -32.50296 -30.98809 4.876492 C -48.503593 21.203792 -65.71156 41.347319 -65.71156 41.347319 " transform="matrix(0.27944,0,0,0.27944,293.557748,302.305282)"/>
<path style=" stroke:none;fill-rule:nonzero;fill:rgb(91.764706%,57.254902%,60.392157%);fill-opacity:1;" d="M 334.253906 292.4375 C 327.226562 292.699219 301.992188 295.289062 296.621094 312.121094 C 291.292969 328.820312 292.347656 339.859375 297.429688 341.21875 C 304.308594 343.058594 308.617188 338.328125 309.351562 329.300781 C 310.089844 320.273438 312.945312 316.835938 318.339844 314.378906 C 325.023438 311.332031 329.394531 311.042969 335.964844 310.316406 C 342.539062 309.585938 344.65625 304.667969 344.65625 300.882812 C 344.652344 297.566406 342.367188 292.136719 334.253906 292.4375 Z M 334.253906 292.4375 "/>
<path style="fill:none;stroke-width:10;stroke-linecap:round;stroke-linejoin:round;stroke:rgb(19.215686%,19.607843%,34.901961%);stroke-opacity:1;stroke-miterlimit:4;" d="M 41.694552 -45.768721 C 41.694552 -45.768721 -6.644321 -40.065349 -31.316996 8.287503 C -37.411776 20.253401 -41.689305 45.764807 -41.689305 45.764807 " transform="matrix(0.27944,0,0,0.27944,305.848876,308.363828)"/>
<path style=" stroke:none;fill-rule:nonzero;fill:rgb(91.764706%,57.254902%,60.392157%);fill-opacity:1;" d="M 338.601562 317.9375 C 335.625 317.65625 327.925781 317.015625 331.332031 325.566406 C 334.953125 334.648438 334.734375 340.070312 328.710938 341.820312 C 322.773438 343.542969 315.816406 334.230469 313.796875 324.476562 C 311.121094 311.5625 315.996094 302.242188 327.925781 301.214844 C 331.734375 300.886719 334.308594 300.597656 336.824219 300.597656 C 342.941406 300.59375 346.941406 304.082031 346.941406 308.773438 C 346.941406 313.859375 343.226562 318.375 338.601562 317.9375 Z M 338.601562 317.9375 "/>
<path style="fill:none;stroke-width:10;stroke-linecap:round;stroke-linejoin:round;stroke:rgb(19.215686%,19.607843%,34.901961%);stroke-opacity:1;stroke-miterlimit:4;" d="M -26.602209 33.878297 C -28.978614 2.076407 -15.824514 -30.172807 26.866903 -33.877203 " transform="matrix(0.27944,0,0,0.27944,320.418095,310.681488)"/>
<path style="fill:none;stroke-width:10;stroke-linecap:round;stroke-linejoin:round;stroke:rgb(19.215686%,19.607843%,34.901961%);stroke-opacity:1;stroke-miterlimit:4;" d="M -12.288628 2.083741 C -12.288628 2.083741 -2.3916 -3.815335 12.286195 -1.56474 " transform="matrix(0.27944,0,0,0.27944,335.168309,318.374751)"/>
<path style=" stroke:none;fill-rule:nonzero;fill:rgb(91.764706%,57.254902%,60.392157%);fill-opacity:1;" d="M 14.917969 297.066406 C 19.191406 267.121094 46.039062 257.507812 61.15625 259.324219 C 76.992188 261.226562 103.605469 263.214844 129.332031 266.285156 C 160.886719 270.046875 191.097656 274.832031 198.320312 275.714844 C 211.777344 277.359375 222.652344 290.371094 222.285156 304.382812 C 222.023438 314.351562 215.664062 327.972656 199.515625 331.453125 C 190.421875 333.414062 158.878906 338.914062 135.960938 340.992188 C 116.5 342.761719 82.882812 344.167969 57.609375 344.566406 C 29.660156 345.011719 11.765625 319.175781 14.917969 297.066406 Z M 14.917969 297.066406 "/>
<path style=" stroke:none;fill-rule:nonzero;fill:rgb(91.764706%,57.254902%,60.392157%);fill-opacity:1;" d="M 222.257812 303.691406 C 222.257812 319.328125 209.582031 332.003906 193.945312 332.003906 C 178.308594 332.003906 165.632812 319.328125 165.632812 303.691406 C 165.632812 288.054688 178.308594 275.378906 193.945312 275.378906 C 209.582031 275.378906 222.257812 288.054688 222.257812 303.691406 Z M 222.257812 303.691406 "/>
<path style=" stroke:none;fill-rule:nonzero;fill:rgb(91.764706%,57.254902%,60.392157%);fill-opacity:1;" d="M 182.710938 279.660156 C 188.394531 278.628906 209.027344 277.332031 222.949219 275.441406 C 236.136719 273.648438 241.285156 276.785156 241.808594 282.519531 C 242.332031 288.253906 236.558594 293.621094 222.308594 295.898438 C 205.179688 298.636719 185.875 296.277344 182.738281 295.820312 C 179.199219 295.304688 173.933594 294.824219 173.933594 287.550781 C 173.933594 281.070312 179.597656 280.226562 182.710938 279.660156 Z M 182.710938 279.660156 "/>
<path style=" stroke:none;fill-rule:nonzero;fill:rgb(91.764706%,57.254902%,60.392157%);fill-opacity:1;" d="M 182.710938 279.660156 C 188.933594 278.582031 221.945312 278.375 242.039062 301.285156 C 257.285156 318.667969 253.847656 329.769531 244.597656 330.589844 C 234.753906 331.460938 227.617188 309.25 214.371094 303.285156 C 204.027344 298.632812 188.65625 296.859375 182.738281 295.820312 C 176.816406 294.785156 173.605469 291.992188 173.773438 287.21875 C 173.945312 282.445312 176.488281 280.738281 182.710938 279.660156 Z M 182.710938 279.660156 "/>
<path style="fill:none;stroke-width:10;stroke-linecap:round;stroke-linejoin:round;stroke:rgb(19.215686%,19.607843%,34.901961%);stroke-opacity:1;stroke-miterlimit:4;" d="M 86.960308 22.755721 C 86.960308 22.755721 45.191407 -0.267278 -10.108984 -13.882455 C -38.821573 -20.955637 -86.964744 -22.758713 -86.964744 -22.758713 " transform="matrix(0.27944,0.00000113421,-0.00000113421,0.27944,208.426401,285.902762)"/>
<path style=" stroke:none;fill-rule:nonzero;fill:rgb(91.764706%,57.254902%,60.392157%);fill-opacity:1;" d="M 182.738281 282.859375 C 182.738281 282.859375 224.171875 287.820312 246.613281 306.699219 C 258.820312 316.96875 267.128906 329.960938 263.484375 335.949219 C 259.835938 341.9375 250.488281 343.925781 239.167969 329.667969 C 227.84375 315.410156 191.476562 298.511719 182.738281 295.820312 C 182.738281 295.820312 182.738281 282.859375 182.738281 282.859375 Z M 182.738281 282.859375 "/>
<path style="fill:none;stroke-width:10;stroke-linecap:round;stroke-linejoin:round;stroke:rgb(19.215686%,19.607843%,34.901961%);stroke-opacity:1;stroke-miterlimit:4;" d="M -60.531648 -30.508805 C -60.531648 -30.508805 16.995159 -6.423559 60.525451 30.508389 " transform="matrix(0.27944,0.00000113421,-0.00000113421,0.27944,229.700085,298.173886)"/>
<path style=" stroke:none;fill-rule:nonzero;fill:rgb(91.764706%,57.254902%,60.392157%);fill-opacity:1;" d="M 182.738281 292.636719 C 186.289062 293.222656 212.519531 296.363281 231.738281 314.234375 C 245.53125 327.0625 250.484375 337.75 241.46875 342.625 C 232.660156 347.390625 224.738281 332.761719 219.652344 327.585938 C 207.070312 314.78125 186.761719 308.609375 182.734375 307.652344 C 178.710938 306.699219 171.550781 304.84375 172.214844 298.632812 C 172.875 292.425781 179.183594 292.046875 182.738281 292.636719 Z M 182.738281 292.636719 "/>
<path style="fill:none;stroke-width:10;stroke-linecap:round;stroke-linejoin:round;stroke:rgb(19.215686%,19.607843%,34.901961%);stroke-opacity:1;stroke-miterlimit:4;" d="M -74.140692 -67.80032 C -74.140692 -67.80032 -30.540623 -59.874488 23.403958 -11.969184 C 57.959803 18.742212 75.503381 48.167623 74.04966 67.807915 " transform="matrix(0.27944,0.00000113421,-0.00000113421,0.27944,225.198266,317.579017)"/>
<path style=" stroke:none;fill-rule:nonzero;fill:rgb(91.764706%,57.254902%,60.392157%);fill-opacity:1;" d="M 179.597656 322.617188 C 182.710938 322.460938 189.992188 323.882812 195.394531 331.730469 C 200.933594 339.773438 203.5625 346.339844 210.917969 345.503906 C 218.277344 344.664062 221.386719 335.375 211.570312 320.375 C 201.753906 305.371094 191.539062 305.558594 182.738281 306.96875 C 173.933594 308.382812 171.421875 312.019531 171.945312 316.363281 C 172.496094 320.917969 176.488281 322.777344 179.597656 322.617188 Z M 179.597656 322.617188 "/>
<path style="fill:none;stroke-width:10;stroke-linecap:round;stroke-linejoin:round;stroke:rgb(19.215686%,19.607843%,34.901961%);stroke-opacity:1;stroke-miterlimit:4;" d="M 38.06531 26.119768 C 2.936239 -27.558879 -28.921561 -27.027553 -38.063724 -25.797377 " transform="matrix(0.27944,0.00000113421,-0.00000113421,0.27944,201.105247,313.638549)"/>
<path style="fill:none;stroke-width:10;stroke-linecap:round;stroke-linejoin:round;stroke:rgb(19.215686%,19.607843%,34.901961%);stroke-opacity:1;stroke-miterlimit:4;" d="M 11.231531 2.631899 C 11.231531 2.631899 -0.0354523 -4.678995 -11.232502 -2.064904 " transform="matrix(0.27944,0.00000113421,-0.00000113421,0.27944,182.736464,323.194217)"/>
<path style=" stroke:none;fill-rule:nonzero;fill:url(#linear8);" d="M 357.304688 346.066406 C 357.304688 346.066406 130.945312 346.066406 130.945312 346.066406 C 127.535156 346.066406 124.769531 343.300781 124.769531 339.890625 C 124.769531 339.890625 124.769531 331.0625 124.769531 331.0625 C 124.769531 327.652344 127.535156 324.886719 130.945312 324.886719 C 130.945312 324.886719 357.304688 324.886719 357.304688 324.886719 C 360.714844 324.886719 363.480469 327.652344 363.480469 331.0625 C 363.480469 331.0625 363.480469 339.890625 363.480469 339.890625 C 363.480469 343.300781 360.714844 346.066406 357.304688 346.066406 Z M 357.304688 346.066406 "/>
<path style=" stroke:none;fill-rule:nonzero;fill:url(#linear9);" d="M 340.890625 346.066406 C 340.890625 346.066406 143.007812 346.066406 143.007812 346.066406 C 139.007812 346.066406 135.679688 342.996094 135.355469 339.007812 C 135.355469 339.007812 122.855469 185.148438 122.855469 185.148438 C 122.078125 175.570312 129.636719 167.371094 139.246094 167.371094 C 139.246094 167.371094 343.089844 167.371094 343.089844 167.371094 C 352.632812 167.371094 360.171875 175.464844 359.496094 184.980469 C 359.496094 184.980469 348.550781 338.933594 348.550781 338.933594 C 348.265625 342.953125 344.917969 346.066406 340.890625 346.066406 Z M 340.890625 346.066406 "/>
<path style="fill:none;stroke-width:10;stroke-linecap:round;stroke-linejoin:round;stroke:rgb(100%,97.647059%,91.372549%);stroke-opacity:1;stroke-miterlimit:4;" d="M 85.443919 -17.41968 C 95.061368 29.772921 64.61543 75.819258 17.422828 85.450686 C -29.769773 95.068136 -75.830088 64.608219 -85.447538 17.415617 C -95.064988 -29.776985 -64.605071 -75.823321 -17.426448 -85.440771 C 29.766154 -95.072199 75.826469 -64.612282 85.443919 -17.41968 Z M 85.443919 -17.41968 " transform="matrix(0.27944,0,0,0.27944,173.326678,270.453693)"/>
<path style="fill:none;stroke-width:10;stroke-linecap:round;stroke-linejoin:round;stroke:rgb(100%,97.647059%,91.372549%);stroke-opacity:1;stroke-miterlimit:4;" d="M 49.084927 -10.010889 C 58.702376 37.181713 44.527821 79.915061 17.422828 85.450686 C -9.682164 90.972332 -39.471096 57.199428 -49.088546 10.006826 C -58.705996 -37.185776 -44.53144 -79.919124 -17.426448 -85.440771 C 9.692524 -90.976396 39.467477 -57.203491 49.084927 -10.010889 Z M 49.084927 -10.010889 " transform="matrix(0.27944,0,0,0.27944,173.326678,270.453693)"/>
<path style="fill:none;stroke-width:10;stroke-linecap:round;stroke-linejoin:round;stroke:rgb(100%,97.647059%,91.372549%);stroke-opacity:1;stroke-miterlimit:4;" d="M -80.484309 16.408278 C -80.484309 16.408278 80.482163 -16.414065 80.482163 -16.414065 " transform="matrix(0.27944,0,0,0.27944,171.713191,262.492996)"/>
<path style="fill:none;stroke-width:10;stroke-linecap:round;stroke-linejoin:round;stroke:rgb(100%,97.647059%,91.372549%);stroke-opacity:1;stroke-miterlimit:4;" d="M -17.426448 -85.440771 C -17.426448 -85.440771 17.422828 85.450686 17.422828 85.450686 " transform="matrix(0.27944,0,0,0.27944,173.326678,270.453693)"/>
<path style="fill:none;stroke-width:10;stroke-linecap:round;stroke-linejoin:round;stroke:rgb(100%,97.647059%,91.372549%);stroke-opacity:1;stroke-miterlimit:4;" d="M -80.553662 16.422027 C -80.553662 16.422027 80.552598 -16.428273 80.552598 -16.428273 " transform="matrix(0.27944,0,0,0.27944,174.939602,278.414935)"/>
<path style=" stroke:none;fill-rule:nonzero;fill:rgb(31.764706%,60.784314%,89.803922%);fill-opacity:1;" d="M 232.886719 237.734375 C 232.886719 237.734375 163.566406 258.855469 163.566406 258.855469 C 159.792969 260.003906 155.800781 257.875 154.652344 254.101562 C 154.652344 254.101562 146.75 228.164062 146.75 228.164062 C 145.601562 224.390625 147.726562 220.398438 151.503906 219.25 C 151.503906 219.25 220.824219 198.132812 220.824219 198.132812 C 224.597656 196.980469 228.589844 199.109375 229.738281 202.882812 C 229.738281 202.882812 237.640625 228.820312 237.640625 228.820312 C 238.789062 232.59375 236.664062 236.585938 232.886719 237.734375 Z M 232.886719 237.734375 "/>
<path style=" stroke:none;fill-rule:nonzero;fill:rgb(85.882353%,90.588235%,87.058824%);fill-opacity:1;" d="M 169.410156 226.15625 C 169.410156 226.15625 174.527344 242.960938 174.527344 242.960938 C 174.527344 242.960938 169.257812 244.566406 169.257812 244.566406 C 169.257812 244.566406 167.265625 238.015625 167.265625 238.015625 C 167.265625 238.015625 162.257812 239.539062 162.257812 239.539062 C 162.257812 239.539062 164.25 246.089844 164.25 246.089844 C 164.25 246.089844 158.984375 247.695312 158.984375 247.695312 C 158.984375 247.695312 153.863281 230.890625 153.863281 230.890625 C 153.863281 230.890625 159.132812 229.289062 159.132812 229.289062 C 159.132812 229.289062 160.976562 235.339844 160.976562 235.339844 C 160.976562 235.339844 165.984375 233.8125 165.984375 233.8125 C 165.984375 233.8125 164.140625 227.761719 164.140625 227.761719 C 164.140625 227.761719 169.410156 226.15625 169.410156 226.15625 Z M 178.332031 228.03125 C 178.332031 228.03125 178.960938 230.09375 178.960938 230.09375 C 178.960938 230.09375 184.179688 228.503906 184.179688 228.503906 C 184.179688 228.503906 185.390625 232.464844 185.390625 232.464844 C 185.390625 232.464844 180.167969 234.058594 180.167969 234.058594 C 180.167969 234.058594 180.890625 236.429688 180.890625 236.429688 C 180.890625 236.429688 186.824219 234.621094 186.824219 234.621094 C 186.824219 234.621094 188.101562 238.824219 188.101562 238.824219 C 188.101562 238.824219 176.902344 242.238281 176.902344 242.238281 C 176.902344 242.238281 171.78125 225.433594 171.78125 225.433594 C 171.78125 225.433594 182.984375 222.019531 182.984375 222.019531 C 182.984375 222.019531 184.265625 226.222656 184.265625 226.222656 C 184.265625 226.222656 178.332031 228.03125 178.332031 228.03125 Z M 194.152344 232.625 C 194.152344 232.625 199.230469 231.078125 199.230469 231.078125 C 199.230469 231.078125 200.445312 235.0625 200.445312 235.0625 C 200.445312 235.0625 190.097656 238.214844 190.097656 238.214844 C 190.097656 238.214844 184.976562 221.414062 184.976562 221.414062 C 184.976562 221.414062 190.246094 219.808594 190.246094 219.808594 C 190.246094 219.808594 194.152344 232.625 194.152344 232.625 Z M 206.160156 228.964844 C 206.160156 228.964844 211.238281 227.417969 211.238281 227.417969 C 211.238281 227.417969 212.453125 231.40625 212.453125 231.40625 C 212.453125 231.40625 202.105469 234.558594 202.105469 234.558594 C 202.105469 234.558594 196.988281 217.753906 196.988281 217.753906 C 196.988281 217.753906 202.253906 216.148438 202.253906 216.148438 C 202.253906 216.148438 206.160156 228.964844 206.160156 228.964844 Z M 217.65625 228.78125 C 216.109375 228.441406 214.75 227.734375 213.574219 226.65625 C 212.398438 225.578125 211.558594 224.21875 211.058594 222.570312 C 210.558594 220.925781 210.496094 219.328125 210.871094 217.78125 C 211.246094 216.230469 211.980469 214.886719 213.078125 213.746094 C 214.175781 212.609375 215.515625 211.800781 217.097656 211.316406 C 218.679688 210.835938 220.238281 210.761719 221.777344 211.097656 C 223.3125 211.433594 224.664062 212.140625 225.832031 213.222656 C 227 214.300781 227.835938 215.664062 228.335938 217.308594 C 228.835938 218.953125 228.90625 220.550781 228.539062 222.097656 C 228.171875 223.644531 227.4375 224.992188 226.34375 226.136719 C 225.25 227.28125 223.917969 228.09375 222.351562 228.570312 C 220.769531 229.054688 219.207031 229.125 217.65625 228.78125 Z M 222.96875 221.914062 C 223.335938 221.066406 223.34375 220.074219 222.996094 218.933594 C 222.644531 217.78125 222.082031 216.953125 221.308594 216.453125 C 220.53125 215.953125 219.625 215.863281 218.578125 216.183594 C 217.519531 216.503906 216.808594 217.089844 216.441406 217.9375 C 216.078125 218.78125 216.070312 219.78125 216.421875 220.9375 C 216.769531 222.078125 217.332031 222.894531 218.105469 223.394531 C 218.878906 223.894531 219.796875 223.980469 220.855469 223.660156 C 221.902344 223.339844 222.605469 222.757812 222.96875 221.914062 Z M 222.96875 221.914062 "/>
<path style=" stroke:none;fill-rule:nonzero;fill:rgb(95.686275%,82.352941%,25.098039%);fill-opacity:1;" d="M 304.1875 297.785156 C 304.1875 297.785156 271.328125 276.523438 271.328125 276.523438 C 267.558594 274.085938 266.480469 269.050781 268.917969 265.285156 C 268.917969 265.285156 285.121094 240.246094 285.121094 240.246094 C 287.558594 236.476562 292.589844 235.398438 296.359375 237.835938 C 296.359375 237.835938 329.21875 259.097656 329.21875 259.097656 C 332.988281 261.535156 334.066406 266.570312 331.628906 270.339844 C 331.628906 270.339844 315.429688 295.375 315.429688 295.375 C 312.988281 299.144531 307.957031 300.222656 304.1875 297.785156 Z M 304.1875 297.785156 "/>
<path style=" stroke:none;fill-rule:nonzero;fill:rgb(19.215686%,19.607843%,34.901961%);fill-opacity:1;" d="M 282.316406 276.15625 C 282.316406 276.15625 275.699219 271.875 275.699219 271.875 C 274.023438 270.792969 273.542969 268.554688 274.625 266.878906 C 274.625 266.878906 288.832031 244.925781 288.832031 244.925781 C 289.914062 243.25 292.152344 242.769531 293.828125 243.855469 C 293.828125 243.855469 300.445312 248.136719 300.445312 248.136719 C 302.121094 249.222656 302.601562 251.457031 301.515625 253.132812 C 301.515625 253.132812 287.3125 275.085938 287.3125 275.085938 C 286.226562 276.761719 283.992188 277.242188 282.316406 276.15625 Z M 282.316406 276.15625 "/>
<path style=" stroke:none;fill-rule:nonzero;fill:rgb(100%,97.647059%,91.372549%);fill-opacity:1;" d="M 306.53125 291.824219 C 306.53125 291.824219 293.441406 283.355469 293.441406 283.355469 C 291.941406 282.382812 291.507812 280.378906 292.480469 278.878906 C 292.480469 278.878906 298.933594 268.902344 298.933594 268.902344 C 299.90625 267.402344 301.910156 266.972656 303.414062 267.941406 C 303.414062 267.941406 316.503906 276.414062 316.503906 276.414062 C 318.003906 277.386719 318.433594 279.390625 317.464844 280.890625 C 317.464844 280.890625 311.011719 290.867188 311.011719 290.867188 C 310.039062 292.367188 308.035156 292.796875 306.53125 291.824219 Z M 306.53125 291.824219 "/>
<path style=" stroke:none;fill-rule:nonzero;fill:rgb(97.647059%,56.862745%,72.54902%);fill-opacity:1;" d="M 320.441406 272.0625 C 320.441406 272.0625 305.765625 262.570312 305.765625 262.570312 C 304.703125 261.882812 304.398438 260.460938 305.085938 259.394531 C 305.085938 259.394531 307.605469 255.503906 307.605469 255.503906 C 308.292969 254.441406 309.714844 254.136719 310.777344 254.824219 C 310.777344 254.824219 325.453125 264.316406 325.453125 264.316406 C 326.515625 265.007812 326.820312 266.429688 326.132812 267.492188 C 326.132812 267.492188 323.617188 271.382812 323.617188 271.382812 C 322.925781 272.449219 321.503906 272.753906 320.441406 272.0625 Z M 320.441406 272.0625 "/>
<path style=" stroke:none;fill-rule:nonzero;fill:url(#linear10);" d="M 323.230469 205.417969 C 331.144531 216.816406 322.175781 236.742188 303.195312 249.921875 C 284.214844 263.101562 262.410156 264.542969 254.496094 253.144531 C 246.582031 241.746094 255.550781 221.824219 274.53125 208.644531 C 293.511719 195.464844 315.3125 194.019531 323.230469 205.417969 Z M 323.230469 205.417969 "/>
<path style=" stroke:none;fill-rule:nonzero;fill:rgb(100%,34.901961%,23.137255%);fill-opacity:1;" d="M 237.800781 278.722656 C 234.757812 278.980469 232.425781 282.539062 231.679688 287.410156 C 226.226562 286.632812 220.058594 287.648438 214.289062 290.671875 C 209.011719 293.441406 204.929688 297.4375 202.390625 301.867188 C 198.296875 300.125 194.484375 300.1875 192.675781 302.382812 C 190.050781 305.5625 192.632812 312.027344 198.441406 316.816406 C 199.132812 317.386719 199.839844 317.90625 200.550781 318.375 C 200.761719 318.921875 201.003906 319.457031 201.28125 319.980469 C 206.386719 329.722656 220.492188 332.394531 232.785156 325.949219 C 244.742188 319.679688 250.578125 307.097656 246.191406 297.453125 C 246.484375 295.675781 246.570312 293.714844 246.394531 291.671875 C 245.757812 284.171875 241.910156 278.371094 237.800781 278.722656 Z M 237.800781 278.722656 "/>
<path style=" stroke:none;fill-rule:nonzero;fill:rgb(100%,97.647059%,91.372549%);fill-opacity:1;" d="M 215.355469 308.613281 C 216.261719 310.339844 216.34375 312.082031 215.539062 312.507812 C 214.730469 312.929688 213.34375 311.871094 212.4375 310.140625 C 211.53125 308.410156 211.449219 306.667969 212.253906 306.246094 C 213.0625 305.824219 214.449219 306.882812 215.355469 308.613281 Z M 215.355469 308.613281 "/>
<path style=" stroke:none;fill-rule:nonzero;fill:rgb(100%,97.647059%,91.372549%);fill-opacity:1;" d="M 232.941406 299.390625 C 233.847656 301.117188 233.929688 302.863281 233.125 303.285156 C 232.320312 303.707031 230.933594 302.648438 230.027344 300.917969 C 229.121094 299.191406 229.039062 297.445312 229.84375 297.023438 C 230.648438 296.601562 232.035156 297.660156 232.941406 299.390625 Z M 232.941406 299.390625 "/>
<path style="fill:none;stroke-width:10;stroke-linecap:round;stroke-linejoin:round;stroke:rgb(100%,97.647059%,91.372549%);stroke-opacity:1;stroke-miterlimit:4;" d="M -11.734443 6.149247 C -11.734443 6.149247 11.736049 -6.152142 11.736049 -6.152142 " transform="matrix(0.27944,0,0,0.27944,224.376729,307.871498)"/>
<path style=" stroke:none;fill-rule:nonzero;fill:rgb(83.921569%,52.156863%,54.901961%);fill-opacity:1;" d="M 270.429688 108.277344 C 270.859375 112.425781 271.292969 117.996094 271.292969 117.996094 C 272.128906 127.425781 264.996094 135.679688 255.542969 136.214844 C 246.039062 136.753906 237.996094 129.277344 237.835938 119.761719 C 237.835938 119.761719 237.742188 114.253906 237.667969 109.902344 C 237.546875 102.601562 242.988281 94.324219 252.953125 94.15625 C 264.179688 93.964844 269.734375 101.488281 270.429688 108.277344 Z M 270.429688 108.277344 "/>
<path style=" stroke:none;fill-rule:nonzero;fill:url(#linear11);" d="M 270.367188 88.417969 C 270.132812 74.601562 282.941406 63.183594 298.976562 62.914062 C 315.011719 62.644531 328.199219 73.621094 328.433594 87.4375 C 328.667969 101.25 315.855469 112.667969 299.820312 112.941406 C 283.789062 113.210938 270.601562 102.230469 270.367188 88.417969 Z M 270.367188 88.417969 "/>
<path style=" stroke:none;fill-rule:nonzero;fill:url(#linear12);" d="M 267.738281 113.746094 C 267.542969 102.023438 276.082031 92.371094 286.816406 92.1875 C 297.550781 92.007812 306.414062 101.363281 306.609375 113.089844 C 306.808594 124.816406 298.265625 134.46875 287.535156 134.648438 C 276.800781 134.832031 267.9375 125.472656 267.738281 113.746094 Z M 267.738281 113.746094 "/>
<path style=" stroke:none;fill-rule:nonzero;fill:rgb(95.686275%,82.352941%,25.098039%);fill-opacity:1;" d="M 274.1875 64.285156 C 270.882812 56.015625 276.355469 46.054688 286.40625 42.039062 C 296.460938 38.023438 307.289062 41.472656 310.589844 49.742188 C 313.894531 58.015625 308.425781 67.972656 298.371094 71.992188 C 288.320312 76.007812 277.492188 72.558594 274.1875 64.285156 Z M 274.1875 64.285156 "/>
<path style=" stroke:none;fill-rule:nonzero;fill:url(#linear13);" d="M 221.910156 35.359375 C 217.761719 24.972656 222.871094 13.167969 233.324219 8.992188 C 243.777344 4.816406 255.617188 9.851562 259.765625 20.234375 C 263.914062 30.617188 258.800781 42.421875 248.347656 46.597656 C 237.894531 50.773438 226.058594 45.742188 221.910156 35.359375 Z M 221.910156 35.359375 "/>
<path style=" stroke:none;fill-rule:nonzero;fill:rgb(95.686275%,82.352941%,25.098039%);fill-opacity:1;" d="M 179.753906 66.34375 C 174.015625 51.980469 183.339844 34.753906 200.578125 27.867188 C 217.816406 20.980469 236.441406 27.039062 242.179688 41.40625 C 247.917969 55.769531 238.597656 72.996094 221.355469 79.882812 C 204.117188 86.769531 185.492188 80.710938 179.753906 66.34375 Z M 179.753906 66.34375 "/>
<path style=" stroke:none;fill-rule:nonzero;fill:rgb(95.686275%,82.352941%,25.098039%);fill-opacity:1;" d="M 248.125 48.21875 C 243.976562 37.832031 250.128906 25.613281 261.867188 20.925781 C 273.605469 16.234375 286.484375 20.851562 290.632812 31.234375 C 294.78125 41.621094 288.628906 53.839844 276.890625 58.53125 C 265.152344 63.21875 252.273438 58.601562 248.125 48.21875 Z M 248.125 48.21875 "/>
<path style=" stroke:none;fill-rule:nonzero;fill:rgb(95.686275%,82.352941%,25.098039%);fill-opacity:1;" d="M 225.535156 49.246094 C 221.386719 38.863281 227.539062 26.644531 239.277344 21.953125 C 251.015625 17.265625 263.894531 21.882812 268.042969 32.265625 C 272.191406 42.648438 266.039062 54.867188 254.300781 59.558594 C 242.5625 64.246094 229.683594 59.632812 225.535156 49.246094 Z M 225.535156 49.246094 "/>
<path style=" stroke:none;fill-rule:nonzero;fill:rgb(95.686275%,82.352941%,25.098039%);fill-opacity:1;" d="M 178.003906 102.34375 C 172.738281 89.164062 182.789062 72.765625 200.449219 65.707031 C 218.109375 58.652344 236.691406 63.617188 241.957031 76.792969 C 247.222656 89.96875 237.171875 106.371094 219.511719 113.425781 C 201.851562 120.484375 183.269531 115.519531 178.003906 102.34375 Z M 178.003906 102.34375 "/>
<path style=" stroke:none;fill-rule:nonzero;fill:rgb(95.686275%,82.352941%,25.098039%);fill-opacity:1;" d="M 200.929688 127.652344 C 193.257812 119.457031 195.632812 104.761719 206.242188 94.832031 C 216.847656 84.90625 231.664062 83.503906 239.339844 91.699219 C 247.011719 99.898438 244.632812 114.59375 234.027344 124.519531 C 223.421875 134.449219 208.605469 135.851562 200.929688 127.652344 Z M 200.929688 127.652344 "/>
<path style=" stroke:none;fill-rule:nonzero;fill:rgb(91.764706%,57.254902%,60.392157%);fill-opacity:1;" d="M 219.019531 87.8125 C 219.019531 87.8125 218.742188 71.28125 218.742188 71.28125 C 218.535156 58.9375 228.371094 48.757812 240.714844 48.550781 C 240.714844 48.550781 259.523438 48.234375 259.523438 48.234375 C 271.867188 48.023438 282.042969 57.863281 282.25 70.207031 C 282.25 70.207031 282.53125 86.742188 282.53125 86.742188 C 282.820312 103.910156 269.140625 118.058594 251.972656 118.351562 C 251.972656 118.351562 250.632812 118.375 250.632812 118.375 C 233.464844 118.664062 219.3125 104.980469 219.019531 87.8125 Z M 219.019531 87.8125 "/>
<path style="fill:none;stroke-width:10;stroke-linecap:round;stroke-linejoin:round;stroke:rgb(19.215686%,19.607843%,34.901961%);stroke-opacity:1;stroke-miterlimit:4;" d="M 18.877826 -13.253572 C 18.877826 -13.253572 5.871893 14.278693 -18.913372 13.28677 " transform="matrix(0.2794,-0.00472003,0.00472003,0.2794,256.139653,102.909341)"/>
<path style="fill:none;stroke-width:10;stroke-linecap:round;stroke-linejoin:round;stroke:rgb(19.215686%,19.607843%,34.901961%);stroke-opacity:1;stroke-miterlimit:4;" d="M 8.388687 16.776386 C -0.880567 16.773586 -8.387261 9.264885 -8.384461 -0.00436899 C -8.395638 -9.273859 -0.87296 -16.780317 8.382317 -16.777753 " transform="matrix(0.2794,-0.00472003,0.00472003,0.2794,245.354359,93.219458)"/>
<path style=" stroke:none;fill-rule:nonzero;fill:rgb(31.764706%,60.784314%,89.803922%);fill-opacity:1;" d="M 288.386719 87.054688 C 286.304688 87.089844 284.585938 85.429688 284.550781 83.347656 C 284.550781 83.347656 283.753906 57.824219 283.753906 57.824219 C 283.46875 40.96875 269.527344 27.488281 252.675781 27.773438 C 252.675781 27.773438 246.25 27.882812 246.25 27.882812 C 229.398438 28.167969 215.917969 42.109375 216.203125 58.964844 C 216.203125 58.964844 216.769531 85.246094 216.769531 85.246094 C 216.804688 87.328125 215.144531 89.046875 213.0625 89.082031 C 210.980469 89.117188 209.261719 87.457031 209.226562 85.371094 C 209.226562 85.371094 208.660156 59.089844 208.660156 59.089844 C 208.304688 38.078125 225.109375 20.695312 246.121094 20.339844 C 246.121094 20.339844 252.546875 20.230469 252.546875 20.230469 C 273.558594 19.875 290.941406 36.683594 291.296875 57.695312 C 291.296875 57.695312 292.09375 83.21875 292.09375 83.21875 C 292.128906 85.300781 290.46875 87.019531 288.386719 87.054688 Z M 288.386719 87.054688 "/>
<path style=" stroke:none;fill-rule:nonzero;fill:url(#linear14);" d="M 214.042969 102.363281 C 217.863281 102.070312 220.726562 98.738281 220.433594 94.917969 C 220.433594 94.917969 218.507812 69.484375 218.507812 69.484375 C 218.21875 65.664062 214.886719 62.800781 211.0625 63.089844 C 200.964844 63.855469 193.402344 72.660156 194.167969 82.757812 C 194.167969 82.757812 194.371094 85.464844 194.371094 85.464844 C 195.136719 95.5625 203.945312 103.125 214.042969 102.363281 Z M 214.042969 102.363281 "/>
<path style=" stroke:none;fill-rule:nonzero;fill:url(#linear15);" d="M 288.058594 97.207031 C 284.226562 97.269531 281.066406 94.21875 281.003906 90.386719 C 281.003906 90.386719 280.570312 64.882812 280.570312 64.882812 C 280.507812 61.050781 283.5625 57.890625 287.390625 57.828125 C 297.515625 57.65625 305.863281 65.726562 306.035156 75.851562 C 306.035156 75.851562 306.082031 78.5625 306.082031 78.5625 C 306.25 88.6875 298.183594 97.035156 288.058594 97.207031 Z M 288.058594 97.207031 "/>
<path style=" stroke:none;fill-rule:nonzero;fill:url(#linear16);" d="M 262.828125 46.824219 C 260.371094 52.980469 265.75 66.097656 269.730469 72.097656 C 274.683594 79.5625 284.40625 74.632812 284.390625 67.992188 C 284.371094 61.316406 284.140625 56.234375 280.820312 47.539062 C 277.582031 39.070312 265.398438 40.390625 262.828125 46.824219 Z M 262.828125 46.824219 "/>
<path style=" stroke:none;fill-rule:nonzero;fill:url(#linear17);" d="M 232.546875 49.847656 C 230.796875 57.066406 228.75 62.492188 225.429688 68.261719 C 221.859375 74.46875 217.3125 79.9375 211.925781 76.050781 C 205.660156 71.527344 214.90625 54 218.941406 46.375 C 223.984375 36.835938 234.359375 42.371094 232.546875 49.847656 Z M 232.546875 49.847656 "/>
<path style=" stroke:none;fill-rule:nonzero;fill:url(#linear18);" d="M 244.105469 51.691406 C 243.023438 58.535156 241.601562 67.796875 238.203125 72.144531 C 234.910156 76.359375 228.363281 77.488281 224.253906 71.113281 C 220.066406 64.621094 227.542969 52.757812 231.328125 46.15625 C 235.261719 39.292969 245.835938 40.746094 244.105469 51.691406 Z M 244.105469 51.691406 "/>
<path style=" stroke:none;fill-rule:nonzero;fill:rgb(95.686275%,82.352941%,25.098039%);fill-opacity:1;" d="M 263.78125 60.527344 C 262.425781 64.332031 259.902344 79.472656 239.324219 72.226562 C 233.160156 70.058594 232.640625 63.078125 237.703125 51.203125 C 242.074219 40.949219 251.980469 39.847656 258.3125 42.363281 C 264.71875 44.90625 267.175781 50.972656 263.78125 60.527344 Z M 263.78125 60.527344 "/>
</g>
</svg>
